<?xml version="1.0" encoding="UTF-8" standalone="no"?>
<!-- Created with Inkscape (http://www.inkscape.org/) -->

<svg
   width="600"
   height="2000"
   viewBox="0 0 158.75001 529.1667"
   version="1.1"
   id="svg24667"
   inkscape:version="1.1 (c68e22c387, 2021-05-23)"
   sodipodi:docname="c0.svg"
   xmlns:inkscape="http://www.inkscape.org/namespaces/inkscape"
   xmlns:sodipodi="http://sodipodi.sourceforge.net/DTD/sodipodi-0.dtd"
   xmlns="http://www.w3.org/2000/svg"
   xmlns:svg="http://www.w3.org/2000/svg">
  <sodipodi:namedview
     id="namedview24669"
     pagecolor="#505050"
     bordercolor="#eeeeee"
     borderopacity="1"
     inkscape:pageshadow="0"
     inkscape:pageopacity="0"
     inkscape:pagecheckerboard="0"
     inkscape:document-units="mm"
     showgrid="false"
     fit-margin-top="0"
     fit-margin-left="0"
     fit-margin-right="0"
     fit-margin-bottom="0"
     units="px"
     inkscape:zoom="0.4005"
     inkscape:cx="300.87391"
     inkscape:cy="1000"
     inkscape:window-width="1920"
     inkscape:window-height="1009"
     inkscape:window-x="1912"
     inkscape:window-y="-8"
     inkscape:window-maximized="1"
     inkscape:current-layer="layer1" />
  <defs
     id="defs24664" />
  <g
     inkscape:label="Calque 1"
     inkscape:groupmode="layer"
     id="layer1"
     transform="translate(100.57005,132.51182)">
    <path
       id="path3788"
       style="fill:#000000;stroke-width:0.564257"
       d="m -30.263546,-119.11594 c 10.732748,20.646559 10.220539,43.05302 13.533636,66.717065 6.16661,44.0453927 11.6986989,88.196225 13.8185449,132.540069 1.98538679,65.506376 3.63960393,131.118116 1.0137223,196.590656 -2.9704801,32.80568 -3.629117,65.84864 -8.5661712,98.45638 -1.103162,12.42698 -18.023384,10.67739 -12.194658,-2.63937 7.578456,-92.84924 8.4887,-185.17637 5.907598,-278.239639 -2.189002,-50.052861 -8.698339,-99.8204482 -16.341838,-149.369802 -1.428138,-11.099221 -3.254909,-23.215047 -4.918152,-34.897856 -3.504675,-11.491803 -9.187534,-25.247263 7.747318,-29.157503 z"
       sodipodi:nodetypes="sssccssccs" />
  </g>
</svg>
