<?xml version="1.0" encoding="UTF-8" standalone="no"?>
<!-- Created with Inkscape (http://www.inkscape.org/) -->

<svg
   width="2000"
   height="2000"
   viewBox="0 0 529.16669 529.16669"
   version="1.1"
   id="svg24667"
   inkscape:version="1.1 (c68e22c387, 2021-05-23)"
   sodipodi:docname="d1.svg"
   xmlns:inkscape="http://www.inkscape.org/namespaces/inkscape"
   xmlns:sodipodi="http://sodipodi.sourceforge.net/DTD/sodipodi-0.dtd"
   xmlns="http://www.w3.org/2000/svg"
   xmlns:svg="http://www.w3.org/2000/svg">
  <sodipodi:namedview
     id="namedview24669"
     pagecolor="#505050"
     bordercolor="#eeeeee"
     borderopacity="1"
     inkscape:pageshadow="0"
     inkscape:pageopacity="0"
     inkscape:pagecheckerboard="0"
     inkscape:document-units="mm"
     showgrid="false"
     fit-margin-top="0"
     fit-margin-left="0"
     fit-margin-right="0"
     fit-margin-bottom="0"
     units="px"
     inkscape:zoom="0.4005"
     inkscape:cx="1000"
     inkscape:cy="1000"
     inkscape:window-width="1920"
     inkscape:window-height="1009"
     inkscape:window-x="1912"
     inkscape:window-y="-8"
     inkscape:window-maximized="1"
     inkscape:current-layer="layer1" />
  <defs
     id="defs24664" />
  <g
     inkscape:label="Calque 1"
     inkscape:groupmode="layer"
     id="layer1"
     transform="translate(100.57005,132.51182)">
    <path
       id="path3788"
       style="fill:#000000;stroke-width:0.746606"
       d="m -68.51188,-119.28265 c 28.941199,11.84228 48.704362,35.116577 73.2676195,56.393737 C 50.474842,-23.286187 95.681572,16.96786 137.79503,60.343378 198.90897,125.40169 259.80098,190.85124 316.46831,259.82757 c 26.80904,35.97961 56.04652,70.2195 80.79335,107.68306 10.17655,13.61034 -3.74513,24.66162 -10.20048,6.09399 C 310.39035,272.48263 223.94195,179.27692 137.34825,86.644917 90.008077,37.510394 38.78835,-7.6302821 -13.320243,-51.576418 -24.720728,-61.663945 -37.421914,-72.445847 -49.575065,-82.926627 -63.319047,-91.634383 -81.195131,-100.7821 -68.51188,-119.28265 Z"
       sodipodi:nodetypes="sssccssccs" />
  </g>
</svg>
