<?xml version="1.0" encoding="UTF-8" standalone="no"?>
<!-- Created with Inkscape (http://www.inkscape.org/) -->

<svg
   width="1611.3955"
   height="1710.0303"
   viewBox="0 0 426.34841 452.44553"
   version="1.1"
   id="svg24667"
   inkscape:version="1.1 (c68e22c387, 2021-05-23)"
   sodipodi:docname="d1.svg"
   xmlns:inkscape="http://www.inkscape.org/namespaces/inkscape"
   xmlns:sodipodi="http://sodipodi.sourceforge.net/DTD/sodipodi-0.dtd"
   xmlns="http://www.w3.org/2000/svg"
   xmlns:svg="http://www.w3.org/2000/svg">
  <sodipodi:namedview
     id="namedview24669"
     pagecolor="#505050"
     bordercolor="#eeeeee"
     borderopacity="1"
     inkscape:pageshadow="0"
     inkscape:pageopacity="0"
     inkscape:pagecheckerboard="0"
     inkscape:document-units="mm"
     showgrid="false"
     fit-margin-top="0"
     fit-margin-left="0"
     fit-margin-right="0"
     fit-margin-bottom="0"
     units="px"
     inkscape:zoom="0.73406285"
     inkscape:cx="777.86255"
     inkscape:cy="736.99411"
     inkscape:window-width="1129"
     inkscape:window-height="1000"
     inkscape:window-x="2702"
     inkscape:window-y="0"
     inkscape:window-maximized="0"
     inkscape:current-layer="layer1" />
  <defs
     id="defs24664" />
  <g
     inkscape:label="Calque 1"
     inkscape:groupmode="layer"
     id="layer1"
     transform="translate(100.57005,132.51182)">
    <path
       id="path3788"
       style="fill:#000000;stroke-width:0.671957"
       d="m 321.8805,-132.51182 c -26.04754,10.65824 -43.8347,31.60548 -65.94202,50.75526 C 214.79056,-46.11347 174.10378,-9.88419 136.201,29.15447 81.19748,87.70798 26.3937,146.61362 -24.6078,208.69342 c -24.12857,32.38222 -50.44276,63.19866 -72.71531,96.91647 -9.15905,12.24952 3.37069,22.19585 9.1806,5.48468 69.00497,-91.0114 146.8099,-174.89802 224.74562,-258.2683 42.60691,-44.22185 88.70548,-84.84918 135.60404,-124.4014 10.26062,-9.07894 21.69189,-18.78282 32.62992,-28.21569 12.3698,-7.83712 28.45856,-16.07021 17.04343,-32.721 z"
       sodipodi:nodetypes="sssccssccs" />
  </g>
</svg>
