<?xml version="1.0" encoding="UTF-8" standalone="no"?>
<!-- Created with Inkscape (http://www.inkscape.org/) -->

<svg
   width="99.999992"
   height="2000"
   viewBox="0 0 26.458331 529.16666"
   version="1.1"
   id="svg24667"
   inkscape:version="1.1 (c68e22c387, 2021-05-23)"
   sodipodi:docname="h2.svg"
   xmlns:inkscape="http://www.inkscape.org/namespaces/inkscape"
   xmlns:sodipodi="http://sodipodi.sourceforge.net/DTD/sodipodi-0.dtd"
   xmlns="http://www.w3.org/2000/svg"
   xmlns:svg="http://www.w3.org/2000/svg">
  <sodipodi:namedview
     id="namedview24669"
     pagecolor="#505050"
     bordercolor="#eeeeee"
     borderopacity="1"
     inkscape:pageshadow="0"
     inkscape:pageopacity="0"
     inkscape:pagecheckerboard="0"
     inkscape:document-units="mm"
     showgrid="false"
     fit-margin-top="0"
     fit-margin-left="0"
     fit-margin-right="0"
     fit-margin-bottom="0"
     units="px"
     inkscape:zoom="0.73406285"
     inkscape:cx="40.187295"
     inkscape:cy="1091.8684"
     inkscape:window-width="1920"
     inkscape:window-height="1009"
     inkscape:window-x="1912"
     inkscape:window-y="-8"
     inkscape:window-maximized="1"
     inkscape:current-layer="layer1" />
  <defs
     id="defs24664" />
  <g
     inkscape:label="Calque 1"
     inkscape:groupmode="layer"
     id="layer1"
     transform="translate(-94.912461,226.91768)">
    <path
       id="path9975"
       style="fill:#000000;stroke-width:1.02662"
       d="m 108.57226,-223.98514 c -14.617966,-15.86409 -10.35659,36.95657 -12.139454,55.12336 -0.0332,43.41029 1.797511,86.81788 -1.003044,130.211347 -2.810516,90.558317 6.766448,181.009463 6.353198,271.541933 1.12999,22.69079 -2.078542,45.70403 2.75232,68.17058 22.52299,7.44365 16.07136,-22.15066 15.70498,-32.46182 -2.80172,-78.86683 -6.54009,-157.60523 -7.55935,-236.463784 -0.86419,-34.303019 0.12304,-68.822214 0.7101,-103.047641 0.60152,-35.069265 -2.38496,-70.048135 -2.88981,-104.998395 -0.2283,-15.80791 6.013,-39.45659 -1.92894,-48.07558 z"
       sodipodi:nodetypes="sssccsssss" />
  </g>
</svg>
