<?xml version="1.0" encoding="UTF-8" standalone="no"?>
<!-- Created with Inkscape (http://www.inkscape.org/) -->

<svg
   width="220"
   height="110"
   viewBox="0 0 58.208333 29.104167"
   version="1.1"
   id="svg5"
   inkscape:version="1.1 (c68e22c387, 2021-05-23)"
   sodipodi:docname="ludo101.svg"
   inkscape:export-filename="C:\Users\marie\OneDrive\Documents\AEC en développement web\Environnement web\EnvWebCode\docker\wp-content\plugins\tic-tac-toe\images\ludo101.png"
   inkscape:export-xdpi="96"
   inkscape:export-ydpi="96"
   xmlns:inkscape="http://www.inkscape.org/namespaces/inkscape"
   xmlns:sodipodi="http://sodipodi.sourceforge.net/DTD/sodipodi-0.dtd"
   xmlns="http://www.w3.org/2000/svg"
   xmlns:svg="http://www.w3.org/2000/svg">
  <sodipodi:namedview
     id="namedview7"
     pagecolor="#505050"
     bordercolor="#eeeeee"
     borderopacity="1"
     inkscape:pageshadow="0"
     inkscape:pageopacity="0"
     inkscape:pagecheckerboard="0"
     inkscape:document-units="px"
     showgrid="false"
     units="px"
     width="793.70081px"
     inkscape:zoom="3.6875619"
     inkscape:cx="107.93039"
     inkscape:cy="82.574885"
     inkscape:window-width="1920"
     inkscape:window-height="991"
     inkscape:window-x="-9"
     inkscape:window-y="-9"
     inkscape:window-maximized="1"
     inkscape:current-layer="layer2" />
  <defs
     id="defs2" />
  <g
     inkscape:label="101"
     inkscape:groupmode="layer"
     id="layer1"
     style="display:inline">
    <text
       xml:space="preserve"
       style="font-style:normal;font-variant:normal;font-weight:normal;font-stretch:normal;font-size:29.9909px;line-height:1.25;font-family:'ST Bd Ex';-inkscape-font-specification:'ST Bd Ex';display:inline;fill:#01a7be;fill-opacity:1;stroke-width:0.264583"
       x="3.3531799"
       y="20.840864"
       id="text13777"><tspan
         sodipodi:role="line"
         id="tspan13775"
         style="font-style:normal;font-variant:normal;font-weight:normal;font-stretch:normal;font-family:'Airstrike Bold';-inkscape-font-specification:'Airstrike Bold, ';fill:#01a7be;fill-opacity:1;stroke-width:0.264583"
         x="3.3531799"
         y="20.840864">101</tspan></text>
  </g>
  <g
     inkscape:groupmode="layer"
     id="layer2"
     inkscape:label="ombre ludo"
     style="display:inline">
    <text
       xml:space="preserve"
       style="font-size:25.4px;line-height:1.25;font-family:'Noto Sans Display';-inkscape-font-specification:'Noto Sans Display';stroke-width:0.264583"
       x="23.693272"
       y="40.638783"
       id="text5938"><tspan
         sodipodi:role="line"
         id="tspan5936"
         style="stroke-width:0.264583"
         x="23.693272"
         y="40.638783" /></text>
    <g
       id="g906"
       transform="translate(-1.6484831,0.31444162)"
       style="fill:#000000;fill-opacity:0.5">
      <g
         aria-label="Ludo"
         transform="rotate(-9.2371219)"
         id="text9793"
         style="font-size:25.5615px;line-height:1.25;font-family:'Noto Sans Display';-inkscape-font-specification:'Noto Sans Display';fill:#000000;fill-opacity:0.5;stroke-width:0.264582">
        <path
           d="m 23.690021,22.301245 q 0.02496,-0.02496 0.04992,-0.02496 V 22.25132 Z M 9.274233,25.671169 q 0.31203,-0.31203 0.374436,-0.361955 0.511729,-0.349473 0.72391,-0.73639 0.03744,-0.08737 0.124812,-0.124812 0.424361,-0.361955 1.360451,-1.460301 1.684962,-2.021955 1.859699,-2.246616 1.722406,-2.121805 2.046917,-2.558647 0.04992,-0.06241 0.199699,-0.224661 0.149774,-0.174737 0.249624,-0.31203 0.09985,-0.137293 0.162256,-0.287068 0.199699,-0.149774 0.561654,-0.561654 0.199699,-0.224662 0.536691,-0.661504 0.336993,-0.449323 0.486767,-0.636541 0.249624,-0.299549 1.273083,-1.435338 0.03744,-0.03744 0.274586,-0.287068 0.249624,-0.249624 0.349474,-0.399398 0.07489,-0.112331 0.511729,-0.611579 0.486767,-0.511729 2.658496,-2.9954884 0.224662,-0.249624 1.522707,-1.9345862 0.149774,-0.062406 0.299548,-0.062406 0.162256,-0.012481 0.274587,0.012481 0.124812,0.024962 0.299549,0.074887 0.174736,0.037444 0.287067,0.049925 0.09985,0.187218 0.04993,0.5616541 -0.01248,0.124812 -0.01248,0.2621052 0,0.1372932 0,0.2870676 0.01248,0.1372932 0.01248,0.2121804 l -0.187218,0.6365413 -1.098346,1.098346 q -0.187218,0.174737 -0.274586,0.336992 -0.174737,0.249624 -0.636541,0.711429 -0.486767,0.486767 -0.848722,0.973534 -0.224662,0.287067 -0.698947,0.798796 -0.474286,0.51173 -0.549173,0.586617 -0.02496,0.02496 -0.249624,0.262105 -0.212181,0.237143 -0.31203,0.374436 -0.174737,0.212181 -1.160752,1.335489 -0.41188,0.461804 -1.24812,1.497744 -0.748872,0.873684 -1.273083,1.56015 -2.221654,2.833233 -3.02045,3.806767 l -0.536692,0.723909 q 0.06241,0.124812 0.199699,0.07489 1.323007,-0.386917 2.333985,-0.711428 h 0.349473 q 0.1997,-0.112331 0.599098,-0.224662 0.399399,-0.11233 0.524211,-0.162255 0.06241,-0.02496 0.723909,-0.174737 0.798797,-0.187218 0.923609,-0.212181 0.786316,-0.124812 0.911128,-0.174736 0.04992,-0.02496 0.162255,-0.02496 0.82376,-0.09985 1.148271,-0.21218 0.112331,-0.06241 0.174737,-0.02496 0.249624,0.02496 0.299549,0.03744 0.06241,0 0.324511,-0.07489 0.274586,-0.07489 0.349474,-0.08737 0.162255,0.03744 0.661503,0.01248 0.511729,-0.02496 0.711429,0.08737 l 0.649022,-0.299549 q 0.611579,0.124812 1.834737,0.02496 v 0.199699 q 0.224661,0 0.31203,0.124812 -0.01248,0.08737 -0.149775,0.137293 -0.137293,0.04993 -0.162255,0.124812 v 0.09985 q -0.03744,0.01248 -0.461805,0.137293 -0.411879,0.112331 -0.661503,0.174737 -0.01248,0 -0.08737,-0.02496 -0.06241,-0.02496 -0.137293,-0.01248 -0.06241,0 -0.137293,0.06241 l -0.124812,0.324511 q -0.04993,0.04992 -0.07489,0.04992 -0.212181,0.01248 -0.711429,0.08737 -0.499248,0.07489 -0.773834,0.07489 -0.361955,0 -0.636542,0.174737 -0.174736,-0.04992 -0.461804,0.07489 -0.274587,0.124812 -0.386917,0.124812 -0.07489,0.07489 -0.187218,0.124812 -0.112331,0.04992 -0.174737,0.06241 -0.06241,0.01248 -0.224662,0.04993 -0.149774,0.02496 -0.174737,0.02496 -0.42436,0.04992 -0.611578,0.09985 -0.1997,0.03744 -0.761354,0.199699 -0.561654,0.162256 -0.873684,0.187218 -0.349474,0.21218 -0.611579,0.149774 -0.474285,0.237143 -0.748872,0.262106 -0.02496,0 -0.07489,0.04992 -0.237143,0.112331 -0.698947,0.237143 -0.449324,0.112331 -0.574136,0.162256 -0.199699,0.06241 -1.235639,0.436842 -0.174736,0.06241 -0.661503,0.224661 -0.474286,0.149775 -0.736391,0.262106 -0.149775,0.06241 -0.449323,0.187218 -0.287068,0.112331 -0.424361,0.174737 l -1.023459,0.461804 q -0.174737,0.07489 -0.611579,0.249624 l -0.461804,0.386917 Q 9.9482179,27.643199 9.8109247,27.13147 9.7110751,26.831921 9.3491202,26.307711 Z m 15.78872,-3.582105 q 0.187218,0.149775 0.31203,0.02496 -0.187218,0 -0.31203,-0.02496 z m 0.798797,0.187218 0.02496,-0.02496 h -0.02496 z"
           style="font-family:Overglow;-inkscape-font-specification:Overglow;fill:#000000;fill-opacity:0.5"
           id="path851" />
        <path
           d="m 35.272576,22.500944 q 0.07489,-0.112331 0.199699,-0.149774 l -0.02496,0.02496 q -0.03744,0.08737 -0.124812,0.124812 h -0.04992 v -0.02496 z M 23.964607,24.398087 24.1019,24.185906 q 0.01248,-0.02496 0.04992,-0.07489 0.03744,-0.06241 0.07489,-0.112331 0.03744,-0.06241 0.07489,-0.112331 0.149775,-0.249624 0.536692,-0.798796 0.162256,-0.224662 0.586617,-0.761354 0.09985,-0.199699 0.299548,-0.386917 0.187218,-0.187218 0.287068,-0.386917 0.08737,-0.08737 0.287068,-0.361955 0.21218,-0.287068 0.324511,-0.374436 0.262105,-0.511729 0.62406,-0.736391 0.07489,-0.137293 0.137293,-0.21218 0.07489,-0.07489 0.112331,-0.08737 0.03744,-0.02496 0.04992,-0.03744 0.04993,-0.04992 0.149774,-0.174737 0.09985,-0.124812 0.187218,-0.212181 0.08737,-0.08737 0.149775,-0.124812 0.04993,0.04993 0.137293,-0.03744 0.08737,-0.08737 0.199699,-0.262106 0.112331,-0.174736 0.174737,-0.237142 0.187218,-0.187218 0.536692,-0.486767 l 0.224661,-0.149775 q 0.436842,-0.03744 0.549173,-0.02496 0.112331,0.01248 0.324511,0.124812 0.03744,0.83624 -0.149774,1.610075 -0.09985,0.124812 -0.237143,0.237143 -0.137293,0.09985 -0.361955,0.249624 -0.224661,0.137293 -0.324511,0.199699 -0.04992,0.04993 -0.149774,0.149774 -0.08737,0.08737 -0.162256,0.162256 -0.07489,0.06241 -0.124812,0.07489 -0.04993,-0.03744 -0.124812,0.04992 -0.07489,0.08737 -0.149774,0.212181 -0.07489,0.124812 -0.124812,0.149774 -0.02496,0.03744 -0.07489,0.149774 -0.08737,0.212181 -0.124812,0.212181 -0.02496,0 -0.03744,-0.06241 -0.262106,0.536691 -0.561654,0.748872 -0.112331,0.237143 -0.299549,0.436842 -0.187218,0.187218 -0.237143,0.274586 -0.249624,0.424361 -0.287068,0.848722 0.386918,-0.01248 0.461805,-0.162256 l 0.07489,-0.07489 q 0.224662,-0.112331 0.41188,-0.224661 0.149774,-0.09985 0.237142,-0.187218 0.04993,-0.04992 0.149775,-0.1997 l 0.07489,-0.07489 q 0.274587,-0.21218 0.798797,-0.686466 0.07489,-0.01248 0.137293,-0.04992 0.07489,-0.04993 0.187218,-0.174737 l 0.09985,-0.11233 0.31203,-0.31203 h -0.07489 q 0.62406,-0.499248 0.786315,-0.611579 0.474286,-0.399399 0.586617,-0.461805 0.06241,0.04992 0.149774,-0.04993 0.09985,-0.11233 0.224662,-0.299548 0.124812,-0.187218 0.199699,-0.262106 0.07489,0.03744 0.174737,-0.08737 0.112331,-0.137293 0.237143,-0.299549 0.124812,-0.174737 0.199699,-0.199699 0.08737,-0.04992 0.299549,-0.324511 0.224661,-0.274587 0.31203,-0.287068 0.299549,-0.299549 0.561654,-0.636541 0.287068,-0.249624 0.561654,-0.212181 0.399398,0.06241 0.486767,0.187218 0.112331,0.287068 -0.02496,0.636542 -0.07489,0.149774 -0.07489,0.31203 0,0.199699 -0.02496,0.299549 -0.09985,0.09985 -0.187218,0.336992 -0.02496,-0.124812 -0.124812,0.09985 -0.08737,0.174736 -0.124812,0.199699 -0.199699,0.299549 -0.361955,0.336992 -0.04993,0.01248 -0.149775,0.199699 -0.09985,0.174737 -0.149774,0.212181 -0.274586,0.536692 -0.574135,0.661504 -0.174737,0.324511 -0.324511,0.511729 -0.137294,0.187218 -0.237143,0.149774 -0.08737,0.149775 -0.262105,0.349474 -0.162256,0.199699 -0.249625,0.374436 l -0.536691,0.686466 q -0.174737,0.21218 -0.174737,0.436842 0.187218,0.06241 0.237143,0.04992 0.274586,-0.06241 0.611579,-0.237143 l 0.761353,-0.299549 q -0.04993,0.04992 -0.04993,0.07489 h 0.07489 q -0.361954,0.162256 -0.661503,0.386918 0.07489,-0.01248 0.31203,-0.137294 l 1.372932,-0.536691 q -0.137293,0 -0.399399,0.112331 -0.262105,0.11233 -0.411879,0.09985 0.336992,-0.08737 0.586616,-0.262105 -0.02496,-0.02496 -0.07489,-0.02496 h 0.07489 q 0.287068,0 0.661504,-0.249624 h 0.07489 q -0.09985,0.04992 -0.124812,0.09985 0.08737,0 0.09985,0.01248 0.01248,0 0.09985,-0.04992 0.08737,-0.04992 0.09985,-0.06241 0.06241,-0.03744 0.287068,-0.08737 0.224661,-0.06241 0.31203,-0.149774 0.03744,-0.01248 0.124812,-0.02496 0.08737,-0.01248 0.124812,-0.02496 l -0.04993,0.09985 q 0.04993,0.04992 0.04993,0.08737 0,0.04992 -0.02496,0.04992 -0.07489,0.03744 -0.237143,0.08737 -0.162255,0.04993 -0.199699,0.06241 -0.237143,0.07489 -0.436842,0.199699 l 0.698947,-0.224661 q -0.324511,0.187218 -0.436842,0.299549 0.03744,-0.01248 0.08737,-0.04992 0.04992,-0.03744 0.06241,-0.04993 0.02496,-0.01248 0.07489,-0.02496 0.04992,-0.01248 0.07489,-0.02496 l -0.07489,0.07489 q -0.299549,0.249624 -0.561654,0.386918 -0.262105,0.124812 -0.299549,0.199699 l -0.08737,0.187218 -0.374436,0.224661 q -0.02496,-0.02496 -0.07489,-0.02496 l 0.374437,-0.299549 q -0.03744,0.02496 -0.162256,0.06241 -0.124812,0.03744 -0.162256,0.06241 l -0.31203,0.149775 q 0.04993,0.04992 0.09985,0.02496 -0.299549,0.21218 -0.561654,0.31203 -0.199699,0.06241 -0.249624,0.09985 -0.149775,0.09985 -0.187218,0.199699 l 0.461804,-0.149774 q -0.586616,0.52421 -1.709924,1.14827 -0.237143,0.09985 -0.486767,0.31203 -0.798797,0.649023 -1.148271,0.948571 -0.162255,0.08737 -0.386917,-0.06241 -0.262105,-0.299548 -0.461804,-0.586616 -0.237143,-0.599098 -0.124812,-1.323007 -0.01248,0 -0.03744,-0.01248 -0.02496,-0.01248 -0.03744,-0.01248 -0.04993,0 -0.07489,0.02496 0.124812,-0.09985 0.336993,-0.31203 -0.262106,0.11233 -0.461805,0.31203 -0.04993,0.04992 -0.07489,0.04992 -0.224662,0.07489 -0.41188,0.1997 0.07489,0.03744 0.199699,0 -0.249624,0.08737 -0.336992,0.336992 -1.173233,0.923609 -1.734887,1.410376 l -0.199699,0.199699 q -0.02496,0.01248 -0.162256,0.112331 -0.149774,0.09985 -0.174737,0.112331 -0.06241,-0.03744 -0.174736,-0.112331 -0.124812,-0.06241 -0.174737,-0.112331 -0.04992,-0.03744 -0.149775,-0.187218 -0.112331,-0.137293 -0.237143,-0.374436 l -0.149774,-0.773835 q 0,-0.01248 -0.02496,-0.723909 -0.03744,-0.72391 -0.03744,-0.748872 z m 2.945564,1.273082 q 0.06241,0.03744 0.124812,-0.02496 v -0.02496 q 0.162255,-0.11233 0.187218,-0.174736 v -0.02496 q -0.174737,0.07489 -0.31203,0.249624 z m 1.298045,-2.508721 h 0.02496 q 0.399398,-0.249624 0.599098,-0.449323 -0.04993,-0.02496 -0.162256,0.02496 l -0.07489,0.07489 0.04992,-0.02496 q -0.374436,0.31203 -0.436842,0.374436 z m 3.993984,1.235639 q 0.262105,0.02496 0.636541,-0.287068 l -0.386917,0.149774 0.137293,-0.02496 z m 1.148271,-0.848722 q 0.07489,0 0.09985,-0.02496 0.02496,0 0.07489,-0.04992 0.01248,-0.01248 0.137294,-0.07489 h -0.04993 q -0.02496,0.01248 -0.08737,0.02496 -0.04992,0.01248 -0.07489,0.02496 -0.09985,0.04992 -0.09985,0.09985 z m 0.461804,-0.09985 q 0.09985,-0.04992 0.124812,-0.09985 -0.02496,-0.02496 -0.04993,-0.02496 z m 0,-0.09985 q 0.01248,0 0.03744,-0.01248 0.02496,-0.01248 0.03744,-0.01248 H 33.8622 q -0.02496,0 -0.04993,0.02496 z m 0.686466,-0.748872 h 0.07489 0.08737 z"
           style="font-family:Overglow;-inkscape-font-specification:Overglow;fill:#000000;fill-opacity:0.5"
           id="path853" />
        <path
           d="m 49.164152,12.154028 q 0.149775,0.112331 -0.02496,0.249624 -0.124812,0.09985 -0.686466,0.661504 -0.274587,0.274586 -0.72391,0.773834 l -0.83624,0.998496 q -0.09985,0.112331 -0.312031,0.349474 -0.199699,0.224662 -0.299548,0.336992 -0.04992,0.04992 -0.112331,0.112331 -0.04993,0.06241 -0.137293,0.137294 -0.07489,0.07489 -0.112331,0.11233 l -0.31203,0.324512 q -0.01248,0.02496 -0.03744,0.08737 -0.02496,0.04993 -0.03744,0.07489 -0.09985,0.112331 -1.397895,1.597594 -1.285564,1.485263 -1.510225,1.772331 -0.436842,0.536691 -2.558647,3.22015 -0.09985,0.137293 -0.237143,0.361954 0.1997,-0.137293 0.237143,-0.137293 0.02496,0 0.07489,-0.04992 l 0.199699,-0.149774 q 0.02496,-0.01248 0.09985,-0.04993 0.08737,-0.04992 0.112331,-0.07489 l 0.124812,-0.124812 q 0.06241,0 0.174737,-0.07489 0.112331,-0.07489 0.187218,-0.08737 0.02496,0 0.124812,0.04992 l 0.386917,-0.224662 0.149775,-0.07489 h 0.07489 q 0.01248,-0.01248 0.112331,-0.07489 0.112331,-0.06241 0.174737,-0.07489 l 0.274586,-0.137293 h 0.124812 q 0.01248,0 0.01248,-0.02496 0.01248,-0.03744 0.03744,-0.02496 v 0.07489 h 0.03744 l 0.149775,-0.07489 q 0.02496,-0.01248 0.07489,-0.02496 0.04992,-0.01248 0.07489,-0.02496 0.04993,0 0.07489,-0.02496 l 0.187218,-0.07489 q 0.149775,-0.03744 0.249625,-0.174736 0.274586,-0.04993 0.411879,-0.162256 l 0.07489,0.07489 0.07489,-0.07489 q 0.04992,0 0.09985,0.02496 l -0.149774,0.07489 q -0.03744,0 -0.112331,0.03744 -0.06241,0.03744 -0.08737,0.04992 -0.03744,0.01248 -0.112331,0.04993 -0.06241,0.03744 -0.09985,0.04992 -0.03744,0.01248 -0.09985,0.04992 -0.06241,0.03744 -0.09985,0.04993 -0.06241,0.01248 -0.162256,0.07489 -0.09985,0.06241 -0.124812,0.07489 v 0.04992 q 0.02496,-0.02496 0.07489,-0.02496 0.02496,-0.01248 0.112331,-0.04992 0.08737,-0.03744 0.149775,-0.04993 0.06241,-0.01248 0.411879,-0.149774 0.09985,-0.04993 0.174737,-0.04993 l 0.149775,-0.07489 q 0.02496,0 0.07489,0.04993 0.199699,0 0.31203,-0.112331 0.03744,0 0.336992,-0.07489 h 0.174737 q -0.124812,0.124812 -0.224662,0.162255 -0.03744,0.01248 -0.124812,0.04992 -0.07489,0.03744 -0.11233,0.04993 -0.149775,0.07489 -0.174737,0.09985 l -0.09985,0.09985 v 0.04992 h -0.08737 l -0.02496,0.02496 v 0.04992 l 0.08737,0.08737 q 0,0.02496 -0.02496,0.02496 h -0.08737 q -0.09985,0.07489 -0.349474,0.224662 -0.137293,0.09985 -0.262105,0.124812 -0.06241,0.01248 -0.149774,0.08737 -0.08737,0.06241 -0.124812,0.07489 l -0.486767,0.299549 q -0.01248,0.01248 -0.06241,0.02496 -0.03744,0.01248 -0.06241,0.02496 -0.06241,0.124812 -0.162256,0.09985 -0.04993,0.137293 -0.08737,0.137293 -0.01248,0.01248 -0.03744,0 -0.02496,0 -0.07489,0.04993 -0.237143,0.124812 -0.31203,0.174736 -0.09985,0.04992 -0.124812,0.124812 0,0.04993 -0.04993,0.04993 -0.07489,0 -0.174737,0.07489 -0.08737,0.07489 -0.112331,0.08737 -0.01248,0.03744 -0.06241,0.06241 -0.04992,0.01248 -0.06241,0.03744 l -0.124812,0.124812 -0.124812,0.09985 -0.162255,0.137293 -0.149775,0.09985 -0.561654,0.461804 -0.07489,0.07489 q -0.06241,0.149774 -0.262105,0.249624 l -0.224662,0.162255 q -0.04993,0.04993 -0.07489,0.04993 -0.461804,0.41188 -0.711428,0.561654 -0.698948,0.436842 -1.185715,0.998496 -0.237142,0.124812 -0.399398,0 -0.224662,-0.162255 -0.41188,-0.486767 -0.174736,-0.324511 -0.224661,-0.461804 -0.03744,-0.137293 -0.112331,-0.611579 l 0.287068,-0.361955 q 0.287067,-0.336992 0.661503,-0.961052 0.386917,-0.62406 0.436842,-0.848722 0.137293,-0.137293 0.199699,-0.262105 l -0.224661,0.149774 q -0.174737,0.02496 -0.486767,0.336993 l -0.41188,0.411879 q 0.03744,-0.137293 0.124812,-0.21218 -0.262105,0.199699 -0.536691,0.561654 l -0.224662,0.31203 q -0.03744,0.02496 -0.124812,0.07489 -0.07489,0.04993 -0.112331,0.07489 -0.04993,0.04993 -0.09985,0 0.02496,-0.03744 0.08737,-0.09985 0.07489,-0.06241 0.09985,-0.09985 l -0.673985,0.611579 q 0.112331,-0.07489 0.262105,-0.07489 -0.561654,0.449323 -0.748872,0.636541 l -0.149774,0.149774 q -0.03744,0.02496 -0.112331,0.08737 -0.07489,0.04992 -0.112331,0.07489 l -1.073383,0.686466 q -0.07489,-0.02496 -0.137294,-0.04993 -0.07489,-0.02496 -0.124812,-0.07489 -0.06241,-0.04993 -0.09985,-0.07489 -0.04993,-0.03744 -0.09985,-0.112331 -0.06241,-0.07489 -0.07489,-0.09985 -0.02496,-0.02496 -0.08737,-0.112331 -0.06241,-0.09985 -0.07489,-0.112331 -0.586616,-0.961053 -0.586616,-1.310526 0.112331,-0.249624 0.599097,-0.986015 0.474286,-0.736391 1.110827,-1.56015 0.09985,-0.137294 0.336993,-0.424361 0.249624,-0.299549 0.386917,-0.499248 0.124812,-0.224662 0.249624,-0.361955 0.137293,-0.149775 0.299549,-0.287068 0.174737,-0.137293 0.262105,-0.224661 0.511729,-0.686466 0.848722,-0.836241 0.03744,-0.03744 0.137293,-0.149774 0.112331,-0.124812 0.149775,-0.174737 0.04992,-0.04992 0.137293,-0.137293 0.09985,-0.08737 0.162255,-0.124812 0.06241,-0.04993 0.137294,-0.07489 0.07489,-0.03744 0.149774,-0.03744 0.574135,-0.399399 0.83624,-0.511729 0.72391,-0.536692 1.66,-0.536692 l 0.436842,0.137293 q 0.01248,0.02496 0.02496,0.07489 0.02496,0.03744 0.03744,0.07489 0.01248,0.03744 0.01248,0.07489 0,0.137293 -0.01248,0.436842 -0.01248,0.299549 -0.01248,0.461804 0,0.212181 0.187218,0.249624 0.187218,-0.04992 0.649023,-0.511729 0.461804,-0.474286 0.52421,-0.511729 l 0.811278,-0.561654 q 0.07489,-0.112331 0.187218,-0.224662 0.03744,-0.09985 0.09985,-0.09985 l 0.224661,-0.237142 q 0.02496,0.02496 0.07489,0.02496 0,-0.04992 -0.02496,-0.07489 L 43.0858,16.984245 q 0.07489,0.02496 0.174737,0.07489 0.112331,-0.174737 0.124812,-0.199699 l 0.02496,-0.08737 q -0.06241,-0.02496 -0.06241,-0.112331 0,-0.08737 -0.01248,-0.112331 0.199699,0 0.361955,-0.262105 l 0.149774,0.08737 q 0.01248,-0.02496 0.07489,-0.08737 0.07489,-0.07489 0.07489,-0.124812 0,-0.09985 0.124812,-0.41188 l 0.237143,-0.07489 0.07489,0.07489 q 0.04993,-0.199699 0.07489,-0.324511 l 0.31203,-0.212181 q 0,-0.03744 -0.01248,-0.11233 -0.01248,-0.07489 -0.01248,-0.112331 0,-0.09985 0.174736,-0.149775 0.07489,0 0.124813,-0.04992 0.162255,-0.162256 0.237142,-0.212181 0.08737,-0.06241 0.124812,-0.174737 l 0.07489,-0.237142 q 0.137293,0.03744 0.162255,0.01248 0.02496,-0.02496 0.04993,-0.162256 0.01248,-0.03744 0.03744,-0.07489 0.02496,-0.03744 0.06241,-0.07489 0.03744,-0.04992 0.04992,-0.07489 0.09985,-0.09985 0.124812,-0.187218 0.08737,-0.124812 0.149775,-0.149774 0.06241,-0.03744 0.112331,-0.124812 l 0.149774,-0.31203 q 0,-0.04992 0.04993,-0.04992 0.149774,-0.07489 0.31203,-0.324511 0.174737,-0.262105 0.199699,-0.287068 0.02496,-0.02496 0.02496,-0.07489 v -0.149774 h 0.09985 q 0.149775,-0.02496 0.199699,-0.212181 0.112331,-0.424361 0.536692,-0.461804 0.06241,0 0.08737,-0.02496 0.237143,-0.149774 0.561654,-0.04992 0.137294,0.03744 0.41188,0.137293 0.274587,0.08737 0.424361,0.124812 0.149774,0.03744 0.187218,0.174737 l -0.08737,0.07489 q -0.112331,0.174737 0.03744,0.287067 z M 34.511222,23.91132 q 0.01248,0.03744 0.08737,-0.01248 0.08737,-0.06241 0.187218,-0.137294 0.09985,-0.07489 0.137293,-0.08737 l 0.948572,-0.761353 q 0.04992,-0.04993 0.237142,-0.187218 0.1997,-0.149775 0.299549,-0.249624 0.07489,-0.137294 0.237143,-0.174737 0.162256,-0.03744 0.274587,-0.287068 0.31203,-0.237143 0.461804,-0.411879 0.04993,0.03744 0.124812,-0.03744 0.07489,-0.07489 0.149774,-0.187218 0.08737,-0.124812 0.137294,-0.149774 l 0.06241,-0.149775 q 0.149774,-0.361955 0.21218,-0.361955 0.04992,-0.08737 0.187218,-0.287067 0.149775,-0.1997 0.199699,-0.299549 l -0.04992,0.02496 q 0.174736,-0.299549 0.09985,-0.436842 -0.01248,0 -0.274586,0.237143 -0.262106,0.224662 -0.436842,0.149774 -0.124812,0.09985 -0.287068,0.1997 -0.162256,0.08737 -0.262105,0.162255 -0.08737,0.06241 -0.124812,0.124812 -0.149775,0.324511 -0.287068,0.474286 -0.137293,0.137293 -0.249624,0.08737 -0.07489,0.124812 -0.249624,0.287068 -0.174737,0.149774 -0.262105,0.324511 -0.06241,0.06241 -0.162256,0.137293 -0.09985,0.06241 -0.187218,0.174737 -0.08737,0.09985 -0.162255,0.299549 -0.06241,0 -0.149775,0.09985 -0.08737,0.09985 -0.187218,0.274586 -0.09985,0.174737 -0.149774,0.237143 -0.524211,0.611579 -0.561654,0.923609 z m 7.725863,-1.435338 q 0.07489,-0.02496 0.07489,-0.07489 z m 0.174737,-0.09985 q 0.224662,-0.08737 0.31203,-0.174737 v -0.02496 q -0.224661,0.08737 -0.31203,0.199699 z m 0,-0.41188 0.07489,-0.04992 v 0.02496 q 0,0.06241 -0.07489,0.02496 z m 0.336993,-4.805262 h 0.04992 l 0.04993,-0.02496 v -0.02496 h -0.07489 q 0,0.02496 -0.02496,0.04992 z m 1.435338,4.143759 q 0,-0.07489 0.04992,-0.02496 0,0.07489 -0.04992,0.02496 z m 1.884661,-8.175187 q 0.09985,0 0.09985,-0.112331 -0.09985,-0.03744 -0.09985,0.07489 z"
           style="font-family:Overglow;-inkscape-font-specification:Overglow;fill:#000000;fill-opacity:0.5"
           id="path855" />
        <path
           d="m 46.118739,19.205907 -0.07489,0.07489 q 0.03744,-0.07489 0.07489,-0.07489 z m -4.193684,5.566616 q -0.03744,-0.06241 -0.03744,-0.299549 -0.01248,-0.249624 0.03744,-0.361955 0.04993,-0.137293 0.212181,-0.41188 0.02496,-0.03744 0.112331,-0.187218 0.07489,-0.149774 0.11233,-0.21218 0.03744,-0.03744 0.124813,-0.199699 0.08737,-0.174737 0.124812,-0.212181 v -0.07489 q 0.174736,-0.137293 0.21218,-0.262105 l 0.07489,-0.149775 q 0.09985,-0.149774 0.224662,-0.287067 0.137293,-0.137293 0.262105,-0.324511 0.02496,-0.02496 0.07489,-0.09985 0.04993,-0.08737 0.08737,-0.137293 0.04992,-0.06241 0.08737,-0.04992 0.03744,-0.01248 0.124812,-0.149774 0.09985,-0.137294 0.137293,-0.149775 0.06241,-0.137293 0.149775,-0.21218 0.09985,-0.07489 0.124812,-0.09985 0.02496,-0.02496 0.08737,-0.04992 0.06241,-0.02496 0.09985,-0.06241 0.04992,-0.04993 0.09985,-0.137293 0.149775,-0.237143 0.1997,-0.187218 0.02496,0 0.07489,-0.04992 l 0.02496,0.02496 q 0.02496,0 0.06241,-0.03744 0.04992,-0.04993 0.04992,-0.06241 h -0.04992 l -0.06241,0.04992 q 0.03744,-0.07489 0.08737,-0.124812 0.08737,0 0.199699,-0.237143 0.01248,-0.02496 0.03744,-0.06241 0.03744,-0.03744 0.04993,-0.06241 0.02496,-0.03744 0.04992,-0.06241 0.02496,-0.02496 0.03744,-0.03744 0.02496,-0.01248 0.04992,0 0.04992,-0.07489 0.137294,-0.09985 0.09985,-0.02496 0.149774,-0.09985 0.04993,-0.08737 0.08737,-0.124812 0.03744,-0.04993 0.08737,-0.07489 0.06241,-0.03744 0.07489,-0.03744 0.02496,0.02496 0.08737,0.02496 L 45.50717,19.76755 q -0.01248,0.01248 -0.02496,0.04992 -0.01248,0.03744 -0.02496,0.04993 l 0.224662,-0.124812 q 0.03744,-0.02496 0.08737,-0.09985 0.06241,-0.07489 0.09985,-0.09985 0.399399,-0.262105 0.911128,-0.823759 -0.224662,0.112331 -0.486767,0.287068 v -0.08737 q 0.04993,-0.09985 0.149774,-0.112331 0.09985,-0.02496 0.137294,-0.06241 0.224661,-0.149774 0.274586,-0.174736 0.02496,-0.01248 0.07489,-0.07489 0.06241,-0.06241 0.09985,-0.08737 0.03744,-0.03744 0.08737,0 0.09985,0.162256 0.274587,-0.149774 h 0.08737 q -0.01248,0.01248 -0.04993,0.03744 -0.02496,0.02496 -0.03744,0.03744 0,0.04993 0.04992,0.04993 0.149775,-0.09985 0.212181,-0.224662 h 0.07489 q 0.04993,-0.04992 0.162256,-0.09985 0.112331,-0.04992 0.149774,-0.07489 0.112331,-0.06241 0.661504,-0.336992 0.06241,-0.03744 0.224661,-0.124812 0.174737,-0.08737 0.224662,-0.112331 0.04993,-0.02496 0.199699,-0.08737 0.162256,-0.06241 0.212181,-0.04992 0.04993,0 0.21218,-0.02496 0.174737,-0.03744 0.249624,0.01248 0.499248,0.798797 0.823759,2.096842 l 0.149775,-0.04992 v 0.04992 q -0.02496,0.08737 -0.361955,0.51173 -0.21218,0.31203 -0.586616,0.773834 -0.08737,0.112331 -0.586617,0.773835 -0.499248,0.649022 -0.786316,0.986014 -0.137293,0.162256 -0.474285,0.486767 -0.324511,0.31203 -0.474286,0.51173 -0.124812,0.162255 -0.436842,0.411879 -0.287068,0.249624 -0.811278,0.736391 -0.52421,0.474286 -0.961053,0.861203 -0.42436,0.374436 -0.83624,0.673985 -0.187218,0.187218 -0.249624,0.224662 -0.04993,0.02496 -0.262105,0.149774 -0.1997,0.124812 -0.287068,0.162256 -0.07489,0.03744 -0.262105,0.09985 -0.174737,0.07489 -0.274587,0.06241 -0.11233,-0.01248 -0.249624,-0.07489 -0.137293,-0.04992 -0.249624,-0.187218 -0.224661,-0.262105 -0.52421,-0.911128 -0.299549,-0.661503 -0.399399,-0.83624 z m 0.31203,-1.073384 q 0.02496,0.02496 0.124812,-0.07489 l 0.02496,0.04993 q 0.07489,-0.07489 0.07489,-0.149774 0,-0.01248 -0.02496,-0.02496 -0.02496,-0.01248 -0.02496,-0.02496 -0.04993,0.02496 -0.112331,0.112331 -0.07489,0.07489 -0.06241,0.11233 z m 0.349474,-0.374436 h 0.02496 q 0.01248,-0.01248 0.04992,-0.04992 0.02496,-0.04992 0.03744,-0.06241 h -0.02496 q -0.01248,0.01248 -0.03744,0.06241 -0.03744,0.03744 -0.04993,0.04992 z m 0.08737,-0.561654 0.04992,-0.08737 q -0.01248,0.01248 -0.02496,0.04992 -0.01248,0.02496 -0.02496,0.03744 z m 0.04992,-0.08737 q 0.02496,-0.04993 0.09985,-0.124812 v -0.02496 q -0.01248,0.02496 -0.04992,0.07489 -0.03744,0.04992 -0.04993,0.07489 z m 0,0.41188 q 0,0.01248 0.02496,0.03744 0.02496,0.02496 0.02496,0.03744 0.09985,-0.174737 0.224662,-0.324511 0.124812,-0.187219 0.424361,-0.524211 0.287067,-0.336992 0.349473,-0.424361 0.124812,-0.08737 0.237143,-0.199699 0.124812,-0.112331 0.274587,-0.274586 0.149774,-0.162256 0.224661,-0.237143 l 0.174737,-0.187218 q -0.07489,0.07489 -0.274586,0.21218 -0.187218,0.124812 -0.262106,0.199699 -0.149774,0.149775 -0.93609,1.073384 l -0.237143,0.31203 q -0.03744,0.04993 -0.124812,0.149774 -0.08737,0.09985 -0.124812,0.149775 z m 0.349474,-0.636542 0.02496,-0.02496 h -0.02496 z m 0.237143,-0.274586 q 0.04993,0 0.08737,-0.02496 0.03744,-0.02496 0.06241,-0.03744 0.01248,-0.01248 0.04993,-0.07489 0.03744,-0.06241 0.04993,-0.07489 -0.174737,0.03744 -0.249624,0.212181 z m 0.02496,2.90812 q -0.01248,0.03744 0.07489,-0.01248 0.04993,-0.03744 0.04993,-0.03744 1.010978,-0.511729 2.246616,-1.56015 0.524211,-0.436842 1.285564,-1.298045 0.41188,-0.474286 1.023459,-1.260602 l 0.224661,-0.274586 0.02496,-0.02496 q 0.02496,-0.02496 0.09985,-0.124812 0.08737,-0.112331 0.124812,-0.162256 0.03744,-0.04993 0.08737,-0.137293 0.06241,-0.08737 0.08737,-0.174737 0.02496,-0.08737 0.03744,-0.174737 0,-0.09985 -0.08737,-0.237143 -0.08737,-0.137293 -0.174736,-0.08737 l -0.224662,0.149774 q -0.187218,0.124812 -0.237143,0.174737 -0.03744,0.04992 -0.112331,0.124812 -0.07489,0.06241 -0.11233,0.112331 -0.02496,0.02496 -0.07489,0.06241 -0.03744,0.03744 -0.07489,0.06241 -0.02496,0.02496 -0.04993,0.02496 -0.03744,-0.04992 -0.09985,0.01248 -0.04993,0.06241 -0.112331,0.187218 -0.02496,-0.02496 -0.06241,0.04992 -0.03744,0.06241 -0.07489,0.137294 -0.03744,0.06241 -0.06241,0.02496 -0.03744,-0.01248 -0.08737,0.03744 -0.04992,0.04992 -0.112331,0.162255 -0.02496,0.02496 -0.11233,0.07489 -0.08737,0.04992 -0.124812,0.124813 -0.112331,0.07489 -0.224662,0.187218 -0.199699,0.199699 -0.237143,0.224661 -0.124812,0.187218 -0.461804,0.41188 -0.1997,0.137293 -0.399399,0.411879 l -0.386917,0.374436 q -0.137293,0.137294 -0.386917,0.436843 -0.31203,0.349473 -0.661504,0.923608 -0.03744,0.06241 -0.21218,0.31203 -0.162256,0.237143 -0.262106,0.424361 -0.09985,0.187218 -0.137293,0.336993 z M 43.63498,21.83944 h 0.02496 q 0.01248,-0.01248 0.03744,-0.03744 0.03744,-0.02496 0.04993,-0.03744 h -0.03744 z m 0.21218,-0.149774 q 0.09985,-0.06241 0.174737,-0.21218 l -0.02496,-0.02496 z m 0.224662,-0.262105 q 0.212181,-0.212181 0.237143,-0.249624 l 0.02496,-0.02496 q -0.174736,0.137294 -0.262105,0.274587 z"
           style="font-family:Overglow;-inkscape-font-specification:Overglow;fill:#000000;fill-opacity:0.5"
           id="path857" />
      </g>
      <g
         aria-label="I"
         transform="matrix(0.98134958,0.45324013,-0.81339336,0.64333598,0,0)"
         id="text18054"
         style="font-size:28.1359px;line-height:1.25;font-family:'Noto Sans Display';-inkscape-font-specification:'Noto Sans Display';fill:#000000;fill-opacity:0.5;stroke-width:0.264582">
        <path
           d="m 50.240926,-3.4813083 q 0.315979,0.3159793 0.192335,0.7830792 -0.08243,0.2885029 -0.08243,0.6594352 0,0.4533617 -0.453362,0.8105557 -0.23355,0.178597 -0.439624,0.39840876 -0.192335,0.20607349 -0.439623,0.52205284 -0.247288,0.30224112 -0.357194,0.42588521 -0.04122,0.0549529 -0.164859,0.26102642 -0.123644,0.20607349 -0.23355,0.30224112 -0.08243,0.0686912 -0.274765,0.31597935 -0.04121,0.0549529 -0.178597,0.178597 -0.123644,0.1236441 -0.164858,0.2060735 -0.123644,0.2198117 -0.288503,0.4258852 -0.164859,0.1923353 -0.439624,0.4945764 -0.261026,0.3022411 -0.343455,0.3846705 -0.4671,0.5495293 -0.865509,1.0853204 -0.412147,0.590744 -0.728126,0.9067234 -0.398409,0.3984087 -0.824294,0.9891527 -0.04121,0.054953 -0.480839,0.6044822 -0.425885,0.5495294 -0.645697,0.8517705 -0.700649,0.947938 -2.63774,3.7230607 l -1.772232,2.527835 q -0.480838,0.714388 -0.590744,1.154012 0,0.05495 -0.02748,0.08243 l -0.934199,1.428776 q -0.01374,0.02748 -0.137383,0.151121 l -0.398409,-0.09617 q -1.057843,-0.563267 -1.401299,-1.648588 0.755603,-1.263917 0.810555,-1.332608 0.302242,-0.425886 0.508315,-0.535791 0.23355,-0.137383 0.315979,-0.439624 l 0.645697,-0.824294 q 0.06869,-0.08243 0.274765,-0.329717 0.219812,-0.261027 0.315979,-0.398409 0.05495,-0.09617 0.178597,-0.247288 0.137383,-0.151121 0.219812,-0.288503 0.08243,-0.1511207 0.109906,-0.3022413 0.38467,-0.2747646 0.563267,-0.6182205 0.151121,-0.3022411 0.439624,-0.6869116 l 1.016629,-1.3463468 q 1.689803,-2.2942849 2.225594,-2.95372 0.06869,-0.082429 1.263917,-1.6623262 V 2.2887494 q 0.164859,-0.23355 0.192336,-0.2610264 0.357194,-0.2198118 0.508314,-0.5220529 0.06869,-0.1099059 0.23355,-0.2885029 0.178597,-0.178597 0.219812,-0.2198117 0.645697,-0.7143881 1.373823,-1.77223201 0.05495,-0.0824294 0.164859,-0.21981173 0.109906,-0.13738236 0.123644,-0.15112056 l 1.346347,-1.8546614 q 0.04121,-0.068691 0.09617,-0.2060735 0.05495,-0.1373823 0.06869,-0.1648588 0.15112,-0.2885029 0.425885,-0.3297176 0.577006,-0.1099058 0.879247,-0.027476 l 0.70065,0.2472882 z"
           style="font-family:Overglow;-inkscape-font-specification:Overglow;fill:#000000;fill-opacity:0.5"
           id="path878" />
      </g>
    </g>
  </g>
  <g
     inkscape:groupmode="layer"
     id="g862"
     inkscape:label="ludo"
     style="display:inline">
    <text
       xml:space="preserve"
       style="font-size:25.4px;line-height:1.25;font-family:'Noto Sans Display';-inkscape-font-specification:'Noto Sans Display';stroke-width:0.264583"
       x="23.693272"
       y="40.638783"
       id="text837"><tspan
         sodipodi:role="line"
         id="tspan835"
         style="stroke-width:0.264583"
         x="23.693272"
         y="40.638783" /></text>
    <g
       id="g858"
       transform="translate(-1.6484831,-0.74389172)">
      <g
         aria-label="Ludo"
         transform="rotate(-9.2371219)"
         id="g851"
         style="font-size:25.5615px;line-height:1.25;font-family:'Noto Sans Display';-inkscape-font-specification:'Noto Sans Display';fill:#dd38b7;stroke-width:0.264582">
        <path
           d="m 23.690021,22.301245 q 0.02496,-0.02496 0.04992,-0.02496 V 22.25132 Z M 9.274233,25.671169 q 0.31203,-0.31203 0.374436,-0.361955 0.511729,-0.349473 0.72391,-0.73639 0.03744,-0.08737 0.124812,-0.124812 0.424361,-0.361955 1.360451,-1.460301 1.684962,-2.021955 1.859699,-2.246616 1.722406,-2.121805 2.046917,-2.558647 0.04992,-0.06241 0.199699,-0.224661 0.149774,-0.174737 0.249624,-0.31203 0.09985,-0.137293 0.162256,-0.287068 0.199699,-0.149774 0.561654,-0.561654 0.199699,-0.224662 0.536691,-0.661504 0.336993,-0.449323 0.486767,-0.636541 0.249624,-0.299549 1.273083,-1.435338 0.03744,-0.03744 0.274586,-0.287068 0.249624,-0.249624 0.349474,-0.399398 0.07489,-0.112331 0.511729,-0.611579 0.486767,-0.511729 2.658496,-2.9954884 0.224662,-0.249624 1.522707,-1.9345862 0.149774,-0.062406 0.299548,-0.062406 0.162256,-0.012481 0.274587,0.012481 0.124812,0.024962 0.299549,0.074887 0.174736,0.037444 0.287067,0.049925 0.09985,0.187218 0.04993,0.5616541 -0.01248,0.124812 -0.01248,0.2621052 0,0.1372932 0,0.2870676 0.01248,0.1372932 0.01248,0.2121804 l -0.187218,0.6365413 -1.098346,1.098346 q -0.187218,0.174737 -0.274586,0.336992 -0.174737,0.249624 -0.636541,0.711429 -0.486767,0.486767 -0.848722,0.973534 -0.224662,0.287067 -0.698947,0.798796 -0.474286,0.51173 -0.549173,0.586617 -0.02496,0.02496 -0.249624,0.262105 -0.212181,0.237143 -0.31203,0.374436 -0.174737,0.212181 -1.160752,1.335489 -0.41188,0.461804 -1.24812,1.497744 -0.748872,0.873684 -1.273083,1.56015 -2.221654,2.833233 -3.02045,3.806767 l -0.536692,0.723909 q 0.06241,0.124812 0.199699,0.07489 1.323007,-0.386917 2.333985,-0.711428 h 0.349473 q 0.1997,-0.112331 0.599098,-0.224662 0.399399,-0.11233 0.524211,-0.162255 0.06241,-0.02496 0.723909,-0.174737 0.798797,-0.187218 0.923609,-0.212181 0.786316,-0.124812 0.911128,-0.174736 0.04992,-0.02496 0.162255,-0.02496 0.82376,-0.09985 1.148271,-0.21218 0.112331,-0.06241 0.174737,-0.02496 0.249624,0.02496 0.299549,0.03744 0.06241,0 0.324511,-0.07489 0.274586,-0.07489 0.349474,-0.08737 0.162255,0.03744 0.661503,0.01248 0.511729,-0.02496 0.711429,0.08737 l 0.649022,-0.299549 q 0.611579,0.124812 1.834737,0.02496 v 0.199699 q 0.224661,0 0.31203,0.124812 -0.01248,0.08737 -0.149775,0.137293 -0.137293,0.04993 -0.162255,0.124812 v 0.09985 q -0.03744,0.01248 -0.461805,0.137293 -0.411879,0.112331 -0.661503,0.174737 -0.01248,0 -0.08737,-0.02496 -0.06241,-0.02496 -0.137293,-0.01248 -0.06241,0 -0.137293,0.06241 l -0.124812,0.324511 q -0.04993,0.04992 -0.07489,0.04992 -0.212181,0.01248 -0.711429,0.08737 -0.499248,0.07489 -0.773834,0.07489 -0.361955,0 -0.636542,0.174737 -0.174736,-0.04992 -0.461804,0.07489 -0.274587,0.124812 -0.386917,0.124812 -0.07489,0.07489 -0.187218,0.124812 -0.112331,0.04992 -0.174737,0.06241 -0.06241,0.01248 -0.224662,0.04993 -0.149774,0.02496 -0.174737,0.02496 -0.42436,0.04992 -0.611578,0.09985 -0.1997,0.03744 -0.761354,0.199699 -0.561654,0.162256 -0.873684,0.187218 -0.349474,0.21218 -0.611579,0.149774 -0.474285,0.237143 -0.748872,0.262106 -0.02496,0 -0.07489,0.04992 -0.237143,0.112331 -0.698947,0.237143 -0.449324,0.112331 -0.574136,0.162256 -0.199699,0.06241 -1.235639,0.436842 -0.174736,0.06241 -0.661503,0.224661 -0.474286,0.149775 -0.736391,0.262106 -0.149775,0.06241 -0.449323,0.187218 -0.287068,0.112331 -0.424361,0.174737 l -1.023459,0.461804 q -0.174737,0.07489 -0.611579,0.249624 l -0.461804,0.386917 Q 9.9482179,27.643199 9.8109247,27.13147 9.7110751,26.831921 9.3491202,26.307711 Z m 15.78872,-3.582105 q 0.187218,0.149775 0.31203,0.02496 -0.187218,0 -0.31203,-0.02496 z m 0.798797,0.187218 0.02496,-0.02496 h -0.02496 z"
           style="font-family:Overglow;-inkscape-font-specification:Overglow"
           id="path843" />
        <path
           d="m 35.272576,22.500944 q 0.07489,-0.112331 0.199699,-0.149774 l -0.02496,0.02496 q -0.03744,0.08737 -0.124812,0.124812 h -0.04992 v -0.02496 z M 23.964607,24.398087 24.1019,24.185906 q 0.01248,-0.02496 0.04992,-0.07489 0.03744,-0.06241 0.07489,-0.112331 0.03744,-0.06241 0.07489,-0.112331 0.149775,-0.249624 0.536692,-0.798796 0.162256,-0.224662 0.586617,-0.761354 0.09985,-0.199699 0.299548,-0.386917 0.187218,-0.187218 0.287068,-0.386917 0.08737,-0.08737 0.287068,-0.361955 0.21218,-0.287068 0.324511,-0.374436 0.262105,-0.511729 0.62406,-0.736391 0.07489,-0.137293 0.137293,-0.21218 0.07489,-0.07489 0.112331,-0.08737 0.03744,-0.02496 0.04992,-0.03744 0.04993,-0.04992 0.149774,-0.174737 0.09985,-0.124812 0.187218,-0.212181 0.08737,-0.08737 0.149775,-0.124812 0.04993,0.04993 0.137293,-0.03744 0.08737,-0.08737 0.199699,-0.262106 0.112331,-0.174736 0.174737,-0.237142 0.187218,-0.187218 0.536692,-0.486767 l 0.224661,-0.149775 q 0.436842,-0.03744 0.549173,-0.02496 0.112331,0.01248 0.324511,0.124812 0.03744,0.83624 -0.149774,1.610075 -0.09985,0.124812 -0.237143,0.237143 -0.137293,0.09985 -0.361955,0.249624 -0.224661,0.137293 -0.324511,0.199699 -0.04992,0.04993 -0.149774,0.149774 -0.08737,0.08737 -0.162256,0.162256 -0.07489,0.06241 -0.124812,0.07489 -0.04993,-0.03744 -0.124812,0.04992 -0.07489,0.08737 -0.149774,0.212181 -0.07489,0.124812 -0.124812,0.149774 -0.02496,0.03744 -0.07489,0.149774 -0.08737,0.212181 -0.124812,0.212181 -0.02496,0 -0.03744,-0.06241 -0.262106,0.536691 -0.561654,0.748872 -0.112331,0.237143 -0.299549,0.436842 -0.187218,0.187218 -0.237143,0.274586 -0.249624,0.424361 -0.287068,0.848722 0.386918,-0.01248 0.461805,-0.162256 l 0.07489,-0.07489 q 0.224662,-0.112331 0.41188,-0.224661 0.149774,-0.09985 0.237142,-0.187218 0.04993,-0.04992 0.149775,-0.1997 l 0.07489,-0.07489 q 0.274587,-0.21218 0.798797,-0.686466 0.07489,-0.01248 0.137293,-0.04992 0.07489,-0.04993 0.187218,-0.174737 l 0.09985,-0.11233 0.31203,-0.31203 h -0.07489 q 0.62406,-0.499248 0.786315,-0.611579 0.474286,-0.399399 0.586617,-0.461805 0.06241,0.04992 0.149774,-0.04993 0.09985,-0.11233 0.224662,-0.299548 0.124812,-0.187218 0.199699,-0.262106 0.07489,0.03744 0.174737,-0.08737 0.112331,-0.137293 0.237143,-0.299549 0.124812,-0.174737 0.199699,-0.199699 0.08737,-0.04992 0.299549,-0.324511 0.224661,-0.274587 0.31203,-0.287068 0.299549,-0.299549 0.561654,-0.636541 0.287068,-0.249624 0.561654,-0.212181 0.399398,0.06241 0.486767,0.187218 0.112331,0.287068 -0.02496,0.636542 -0.07489,0.149774 -0.07489,0.31203 0,0.199699 -0.02496,0.299549 -0.09985,0.09985 -0.187218,0.336992 -0.02496,-0.124812 -0.124812,0.09985 -0.08737,0.174736 -0.124812,0.199699 -0.199699,0.299549 -0.361955,0.336992 -0.04993,0.01248 -0.149775,0.199699 -0.09985,0.174737 -0.149774,0.212181 -0.274586,0.536692 -0.574135,0.661504 -0.174737,0.324511 -0.324511,0.511729 -0.137294,0.187218 -0.237143,0.149774 -0.08737,0.149775 -0.262105,0.349474 -0.162256,0.199699 -0.249625,0.374436 l -0.536691,0.686466 q -0.174737,0.21218 -0.174737,0.436842 0.187218,0.06241 0.237143,0.04992 0.274586,-0.06241 0.611579,-0.237143 l 0.761353,-0.299549 q -0.04993,0.04992 -0.04993,0.07489 h 0.07489 q -0.361954,0.162256 -0.661503,0.386918 0.07489,-0.01248 0.31203,-0.137294 l 1.372932,-0.536691 q -0.137293,0 -0.399399,0.112331 -0.262105,0.11233 -0.411879,0.09985 0.336992,-0.08737 0.586616,-0.262105 -0.02496,-0.02496 -0.07489,-0.02496 h 0.07489 q 0.287068,0 0.661504,-0.249624 h 0.07489 q -0.09985,0.04992 -0.124812,0.09985 0.08737,0 0.09985,0.01248 0.01248,0 0.09985,-0.04992 0.08737,-0.04992 0.09985,-0.06241 0.06241,-0.03744 0.287068,-0.08737 0.224661,-0.06241 0.31203,-0.149774 0.03744,-0.01248 0.124812,-0.02496 0.08737,-0.01248 0.124812,-0.02496 l -0.04993,0.09985 q 0.04993,0.04992 0.04993,0.08737 0,0.04992 -0.02496,0.04992 -0.07489,0.03744 -0.237143,0.08737 -0.162255,0.04993 -0.199699,0.06241 -0.237143,0.07489 -0.436842,0.199699 l 0.698947,-0.224661 q -0.324511,0.187218 -0.436842,0.299549 0.03744,-0.01248 0.08737,-0.04992 0.04992,-0.03744 0.06241,-0.04993 0.02496,-0.01248 0.07489,-0.02496 0.04992,-0.01248 0.07489,-0.02496 l -0.07489,0.07489 q -0.299549,0.249624 -0.561654,0.386918 -0.262105,0.124812 -0.299549,0.199699 l -0.08737,0.187218 -0.374436,0.224661 q -0.02496,-0.02496 -0.07489,-0.02496 l 0.374437,-0.299549 q -0.03744,0.02496 -0.162256,0.06241 -0.124812,0.03744 -0.162256,0.06241 l -0.31203,0.149775 q 0.04993,0.04992 0.09985,0.02496 -0.299549,0.21218 -0.561654,0.31203 -0.199699,0.06241 -0.249624,0.09985 -0.149775,0.09985 -0.187218,0.199699 l 0.461804,-0.149774 q -0.586616,0.52421 -1.709924,1.14827 -0.237143,0.09985 -0.486767,0.31203 -0.798797,0.649023 -1.148271,0.948571 -0.162255,0.08737 -0.386917,-0.06241 -0.262105,-0.299548 -0.461804,-0.586616 -0.237143,-0.599098 -0.124812,-1.323007 -0.01248,0 -0.03744,-0.01248 -0.02496,-0.01248 -0.03744,-0.01248 -0.04993,0 -0.07489,0.02496 0.124812,-0.09985 0.336993,-0.31203 -0.262106,0.11233 -0.461805,0.31203 -0.04993,0.04992 -0.07489,0.04992 -0.224662,0.07489 -0.41188,0.1997 0.07489,0.03744 0.199699,0 -0.249624,0.08737 -0.336992,0.336992 -1.173233,0.923609 -1.734887,1.410376 l -0.199699,0.199699 q -0.02496,0.01248 -0.162256,0.112331 -0.149774,0.09985 -0.174737,0.112331 -0.06241,-0.03744 -0.174736,-0.112331 -0.124812,-0.06241 -0.174737,-0.112331 -0.04992,-0.03744 -0.149775,-0.187218 -0.112331,-0.137293 -0.237143,-0.374436 l -0.149774,-0.773835 q 0,-0.01248 -0.02496,-0.723909 -0.03744,-0.72391 -0.03744,-0.748872 z m 2.945564,1.273082 q 0.06241,0.03744 0.124812,-0.02496 v -0.02496 q 0.162255,-0.11233 0.187218,-0.174736 v -0.02496 q -0.174737,0.07489 -0.31203,0.249624 z m 1.298045,-2.508721 h 0.02496 q 0.399398,-0.249624 0.599098,-0.449323 -0.04993,-0.02496 -0.162256,0.02496 l -0.07489,0.07489 0.04992,-0.02496 q -0.374436,0.31203 -0.436842,0.374436 z m 3.993984,1.235639 q 0.262105,0.02496 0.636541,-0.287068 l -0.386917,0.149774 0.137293,-0.02496 z m 1.148271,-0.848722 q 0.07489,0 0.09985,-0.02496 0.02496,0 0.07489,-0.04992 0.01248,-0.01248 0.137294,-0.07489 h -0.04993 q -0.02496,0.01248 -0.08737,0.02496 -0.04992,0.01248 -0.07489,0.02496 -0.09985,0.04992 -0.09985,0.09985 z m 0.461804,-0.09985 q 0.09985,-0.04992 0.124812,-0.09985 -0.02496,-0.02496 -0.04993,-0.02496 z m 0,-0.09985 q 0.01248,0 0.03744,-0.01248 0.02496,-0.01248 0.03744,-0.01248 H 33.8622 q -0.02496,0 -0.04993,0.02496 z m 0.686466,-0.748872 h 0.07489 0.08737 z"
           style="font-family:Overglow;-inkscape-font-specification:Overglow"
           id="path845" />
        <path
           d="m 49.164152,12.154028 q 0.149775,0.112331 -0.02496,0.249624 -0.124812,0.09985 -0.686466,0.661504 -0.274587,0.274586 -0.72391,0.773834 l -0.83624,0.998496 q -0.09985,0.112331 -0.312031,0.349474 -0.199699,0.224662 -0.299548,0.336992 -0.04992,0.04992 -0.112331,0.112331 -0.04993,0.06241 -0.137293,0.137294 -0.07489,0.07489 -0.112331,0.11233 l -0.31203,0.324512 q -0.01248,0.02496 -0.03744,0.08737 -0.02496,0.04993 -0.03744,0.07489 -0.09985,0.112331 -1.397895,1.597594 -1.285564,1.485263 -1.510225,1.772331 -0.436842,0.536691 -2.558647,3.22015 -0.09985,0.137293 -0.237143,0.361954 0.1997,-0.137293 0.237143,-0.137293 0.02496,0 0.07489,-0.04992 l 0.199699,-0.149774 q 0.02496,-0.01248 0.09985,-0.04993 0.08737,-0.04992 0.112331,-0.07489 l 0.124812,-0.124812 q 0.06241,0 0.174737,-0.07489 0.112331,-0.07489 0.187218,-0.08737 0.02496,0 0.124812,0.04992 l 0.386917,-0.224662 0.149775,-0.07489 h 0.07489 q 0.01248,-0.01248 0.112331,-0.07489 0.112331,-0.06241 0.174737,-0.07489 l 0.274586,-0.137293 h 0.124812 q 0.01248,0 0.01248,-0.02496 0.01248,-0.03744 0.03744,-0.02496 v 0.07489 h 0.03744 l 0.149775,-0.07489 q 0.02496,-0.01248 0.07489,-0.02496 0.04992,-0.01248 0.07489,-0.02496 0.04993,0 0.07489,-0.02496 l 0.187218,-0.07489 q 0.149775,-0.03744 0.249625,-0.174736 0.274586,-0.04993 0.411879,-0.162256 l 0.07489,0.07489 0.07489,-0.07489 q 0.04992,0 0.09985,0.02496 l -0.149774,0.07489 q -0.03744,0 -0.112331,0.03744 -0.06241,0.03744 -0.08737,0.04992 -0.03744,0.01248 -0.112331,0.04993 -0.06241,0.03744 -0.09985,0.04992 -0.03744,0.01248 -0.09985,0.04992 -0.06241,0.03744 -0.09985,0.04993 -0.06241,0.01248 -0.162256,0.07489 -0.09985,0.06241 -0.124812,0.07489 v 0.04992 q 0.02496,-0.02496 0.07489,-0.02496 0.02496,-0.01248 0.112331,-0.04992 0.08737,-0.03744 0.149775,-0.04993 0.06241,-0.01248 0.411879,-0.149774 0.09985,-0.04993 0.174737,-0.04993 l 0.149775,-0.07489 q 0.02496,0 0.07489,0.04993 0.199699,0 0.31203,-0.112331 0.03744,0 0.336992,-0.07489 h 0.174737 q -0.124812,0.124812 -0.224662,0.162255 -0.03744,0.01248 -0.124812,0.04992 -0.07489,0.03744 -0.11233,0.04993 -0.149775,0.07489 -0.174737,0.09985 l -0.09985,0.09985 v 0.04992 h -0.08737 l -0.02496,0.02496 v 0.04992 l 0.08737,0.08737 q 0,0.02496 -0.02496,0.02496 h -0.08737 q -0.09985,0.07489 -0.349474,0.224662 -0.137293,0.09985 -0.262105,0.124812 -0.06241,0.01248 -0.149774,0.08737 -0.08737,0.06241 -0.124812,0.07489 l -0.486767,0.299549 q -0.01248,0.01248 -0.06241,0.02496 -0.03744,0.01248 -0.06241,0.02496 -0.06241,0.124812 -0.162256,0.09985 -0.04993,0.137293 -0.08737,0.137293 -0.01248,0.01248 -0.03744,0 -0.02496,0 -0.07489,0.04993 -0.237143,0.124812 -0.31203,0.174736 -0.09985,0.04992 -0.124812,0.124812 0,0.04993 -0.04993,0.04993 -0.07489,0 -0.174737,0.07489 -0.08737,0.07489 -0.112331,0.08737 -0.01248,0.03744 -0.06241,0.06241 -0.04992,0.01248 -0.06241,0.03744 l -0.124812,0.124812 -0.124812,0.09985 -0.162255,0.137293 -0.149775,0.09985 -0.561654,0.461804 -0.07489,0.07489 q -0.06241,0.149774 -0.262105,0.249624 l -0.224662,0.162255 q -0.04993,0.04993 -0.07489,0.04993 -0.461804,0.41188 -0.711428,0.561654 -0.698948,0.436842 -1.185715,0.998496 -0.237142,0.124812 -0.399398,0 -0.224662,-0.162255 -0.41188,-0.486767 -0.174736,-0.324511 -0.224661,-0.461804 -0.03744,-0.137293 -0.112331,-0.611579 l 0.287068,-0.361955 q 0.287067,-0.336992 0.661503,-0.961052 0.386917,-0.62406 0.436842,-0.848722 0.137293,-0.137293 0.199699,-0.262105 l -0.224661,0.149774 q -0.174737,0.02496 -0.486767,0.336993 l -0.41188,0.411879 q 0.03744,-0.137293 0.124812,-0.21218 -0.262105,0.199699 -0.536691,0.561654 l -0.224662,0.31203 q -0.03744,0.02496 -0.124812,0.07489 -0.07489,0.04993 -0.112331,0.07489 -0.04993,0.04993 -0.09985,0 0.02496,-0.03744 0.08737,-0.09985 0.07489,-0.06241 0.09985,-0.09985 l -0.673985,0.611579 q 0.112331,-0.07489 0.262105,-0.07489 -0.561654,0.449323 -0.748872,0.636541 l -0.149774,0.149774 q -0.03744,0.02496 -0.112331,0.08737 -0.07489,0.04992 -0.112331,0.07489 l -1.073383,0.686466 q -0.07489,-0.02496 -0.137294,-0.04993 -0.07489,-0.02496 -0.124812,-0.07489 -0.06241,-0.04993 -0.09985,-0.07489 -0.04993,-0.03744 -0.09985,-0.112331 -0.06241,-0.07489 -0.07489,-0.09985 -0.02496,-0.02496 -0.08737,-0.112331 -0.06241,-0.09985 -0.07489,-0.112331 -0.586616,-0.961053 -0.586616,-1.310526 0.112331,-0.249624 0.599097,-0.986015 0.474286,-0.736391 1.110827,-1.56015 0.09985,-0.137294 0.336993,-0.424361 0.249624,-0.299549 0.386917,-0.499248 0.124812,-0.224662 0.249624,-0.361955 0.137293,-0.149775 0.299549,-0.287068 0.174737,-0.137293 0.262105,-0.224661 0.511729,-0.686466 0.848722,-0.836241 0.03744,-0.03744 0.137293,-0.149774 0.112331,-0.124812 0.149775,-0.174737 0.04992,-0.04992 0.137293,-0.137293 0.09985,-0.08737 0.162255,-0.124812 0.06241,-0.04993 0.137294,-0.07489 0.07489,-0.03744 0.149774,-0.03744 0.574135,-0.399399 0.83624,-0.511729 0.72391,-0.536692 1.66,-0.536692 l 0.436842,0.137293 q 0.01248,0.02496 0.02496,0.07489 0.02496,0.03744 0.03744,0.07489 0.01248,0.03744 0.01248,0.07489 0,0.137293 -0.01248,0.436842 -0.01248,0.299549 -0.01248,0.461804 0,0.212181 0.187218,0.249624 0.187218,-0.04992 0.649023,-0.511729 0.461804,-0.474286 0.52421,-0.511729 l 0.811278,-0.561654 q 0.07489,-0.112331 0.187218,-0.224662 0.03744,-0.09985 0.09985,-0.09985 l 0.224661,-0.237142 q 0.02496,0.02496 0.07489,0.02496 0,-0.04992 -0.02496,-0.07489 L 43.0858,16.984245 q 0.07489,0.02496 0.174737,0.07489 0.112331,-0.174737 0.124812,-0.199699 l 0.02496,-0.08737 q -0.06241,-0.02496 -0.06241,-0.112331 0,-0.08737 -0.01248,-0.112331 0.199699,0 0.361955,-0.262105 l 0.149774,0.08737 q 0.01248,-0.02496 0.07489,-0.08737 0.07489,-0.07489 0.07489,-0.124812 0,-0.09985 0.124812,-0.41188 l 0.237143,-0.07489 0.07489,0.07489 q 0.04993,-0.199699 0.07489,-0.324511 l 0.31203,-0.212181 q 0,-0.03744 -0.01248,-0.11233 -0.01248,-0.07489 -0.01248,-0.112331 0,-0.09985 0.174736,-0.149775 0.07489,0 0.124813,-0.04992 0.162255,-0.162256 0.237142,-0.212181 0.08737,-0.06241 0.124812,-0.174737 l 0.07489,-0.237142 q 0.137293,0.03744 0.162255,0.01248 0.02496,-0.02496 0.04993,-0.162256 0.01248,-0.03744 0.03744,-0.07489 0.02496,-0.03744 0.06241,-0.07489 0.03744,-0.04992 0.04992,-0.07489 0.09985,-0.09985 0.124812,-0.187218 0.08737,-0.124812 0.149775,-0.149774 0.06241,-0.03744 0.112331,-0.124812 l 0.149774,-0.31203 q 0,-0.04992 0.04993,-0.04992 0.149774,-0.07489 0.31203,-0.324511 0.174737,-0.262105 0.199699,-0.287068 0.02496,-0.02496 0.02496,-0.07489 v -0.149774 h 0.09985 q 0.149775,-0.02496 0.199699,-0.212181 0.112331,-0.424361 0.536692,-0.461804 0.06241,0 0.08737,-0.02496 0.237143,-0.149774 0.561654,-0.04992 0.137294,0.03744 0.41188,0.137293 0.274587,0.08737 0.424361,0.124812 0.149774,0.03744 0.187218,0.174737 l -0.08737,0.07489 q -0.112331,0.174737 0.03744,0.287067 z M 34.511222,23.91132 q 0.01248,0.03744 0.08737,-0.01248 0.08737,-0.06241 0.187218,-0.137294 0.09985,-0.07489 0.137293,-0.08737 l 0.948572,-0.761353 q 0.04992,-0.04993 0.237142,-0.187218 0.1997,-0.149775 0.299549,-0.249624 0.07489,-0.137294 0.237143,-0.174737 0.162256,-0.03744 0.274587,-0.287068 0.31203,-0.237143 0.461804,-0.411879 0.04993,0.03744 0.124812,-0.03744 0.07489,-0.07489 0.149774,-0.187218 0.08737,-0.124812 0.137294,-0.149774 l 0.06241,-0.149775 q 0.149774,-0.361955 0.21218,-0.361955 0.04992,-0.08737 0.187218,-0.287067 0.149775,-0.1997 0.199699,-0.299549 l -0.04992,0.02496 q 0.174736,-0.299549 0.09985,-0.436842 -0.01248,0 -0.274586,0.237143 -0.262106,0.224662 -0.436842,0.149774 -0.124812,0.09985 -0.287068,0.1997 -0.162256,0.08737 -0.262105,0.162255 -0.08737,0.06241 -0.124812,0.124812 -0.149775,0.324511 -0.287068,0.474286 -0.137293,0.137293 -0.249624,0.08737 -0.07489,0.124812 -0.249624,0.287068 -0.174737,0.149774 -0.262105,0.324511 -0.06241,0.06241 -0.162256,0.137293 -0.09985,0.06241 -0.187218,0.174737 -0.08737,0.09985 -0.162255,0.299549 -0.06241,0 -0.149775,0.09985 -0.08737,0.09985 -0.187218,0.274586 -0.09985,0.174737 -0.149774,0.237143 -0.524211,0.611579 -0.561654,0.923609 z m 7.725863,-1.435338 q 0.07489,-0.02496 0.07489,-0.07489 z m 0.174737,-0.09985 q 0.224662,-0.08737 0.31203,-0.174737 v -0.02496 q -0.224661,0.08737 -0.31203,0.199699 z m 0,-0.41188 0.07489,-0.04992 v 0.02496 q 0,0.06241 -0.07489,0.02496 z m 0.336993,-4.805262 h 0.04992 l 0.04993,-0.02496 v -0.02496 h -0.07489 q 0,0.02496 -0.02496,0.04992 z m 1.435338,4.143759 q 0,-0.07489 0.04992,-0.02496 0,0.07489 -0.04992,0.02496 z m 1.884661,-8.175187 q 0.09985,0 0.09985,-0.112331 -0.09985,-0.03744 -0.09985,0.07489 z"
           style="font-family:Overglow;-inkscape-font-specification:Overglow"
           id="path847" />
        <path
           d="m 46.118739,19.205907 -0.07489,0.07489 q 0.03744,-0.07489 0.07489,-0.07489 z m -4.193684,5.566616 q -0.03744,-0.06241 -0.03744,-0.299549 -0.01248,-0.249624 0.03744,-0.361955 0.04993,-0.137293 0.212181,-0.41188 0.02496,-0.03744 0.112331,-0.187218 0.07489,-0.149774 0.11233,-0.21218 0.03744,-0.03744 0.124813,-0.199699 0.08737,-0.174737 0.124812,-0.212181 v -0.07489 q 0.174736,-0.137293 0.21218,-0.262105 l 0.07489,-0.149775 q 0.09985,-0.149774 0.224662,-0.287067 0.137293,-0.137293 0.262105,-0.324511 0.02496,-0.02496 0.07489,-0.09985 0.04993,-0.08737 0.08737,-0.137293 0.04992,-0.06241 0.08737,-0.04992 0.03744,-0.01248 0.124812,-0.149774 0.09985,-0.137294 0.137293,-0.149775 0.06241,-0.137293 0.149775,-0.21218 0.09985,-0.07489 0.124812,-0.09985 0.02496,-0.02496 0.08737,-0.04992 0.06241,-0.02496 0.09985,-0.06241 0.04992,-0.04993 0.09985,-0.137293 0.149775,-0.237143 0.1997,-0.187218 0.02496,0 0.07489,-0.04992 l 0.02496,0.02496 q 0.02496,0 0.06241,-0.03744 0.04992,-0.04993 0.04992,-0.06241 h -0.04992 l -0.06241,0.04992 q 0.03744,-0.07489 0.08737,-0.124812 0.08737,0 0.199699,-0.237143 0.01248,-0.02496 0.03744,-0.06241 0.03744,-0.03744 0.04993,-0.06241 0.02496,-0.03744 0.04992,-0.06241 0.02496,-0.02496 0.03744,-0.03744 0.02496,-0.01248 0.04992,0 0.04992,-0.07489 0.137294,-0.09985 0.09985,-0.02496 0.149774,-0.09985 0.04993,-0.08737 0.08737,-0.124812 0.03744,-0.04993 0.08737,-0.07489 0.06241,-0.03744 0.07489,-0.03744 0.02496,0.02496 0.08737,0.02496 L 45.50717,19.76755 q -0.01248,0.01248 -0.02496,0.04992 -0.01248,0.03744 -0.02496,0.04993 l 0.224662,-0.124812 q 0.03744,-0.02496 0.08737,-0.09985 0.06241,-0.07489 0.09985,-0.09985 0.399399,-0.262105 0.911128,-0.823759 -0.224662,0.112331 -0.486767,0.287068 v -0.08737 q 0.04993,-0.09985 0.149774,-0.112331 0.09985,-0.02496 0.137294,-0.06241 0.224661,-0.149774 0.274586,-0.174736 0.02496,-0.01248 0.07489,-0.07489 0.06241,-0.06241 0.09985,-0.08737 0.03744,-0.03744 0.08737,0 0.09985,0.162256 0.274587,-0.149774 h 0.08737 q -0.01248,0.01248 -0.04993,0.03744 -0.02496,0.02496 -0.03744,0.03744 0,0.04993 0.04992,0.04993 0.149775,-0.09985 0.212181,-0.224662 h 0.07489 q 0.04993,-0.04992 0.162256,-0.09985 0.112331,-0.04992 0.149774,-0.07489 0.112331,-0.06241 0.661504,-0.336992 0.06241,-0.03744 0.224661,-0.124812 0.174737,-0.08737 0.224662,-0.112331 0.04993,-0.02496 0.199699,-0.08737 0.162256,-0.06241 0.212181,-0.04992 0.04993,0 0.21218,-0.02496 0.174737,-0.03744 0.249624,0.01248 0.499248,0.798797 0.823759,2.096842 l 0.149775,-0.04992 v 0.04992 q -0.02496,0.08737 -0.361955,0.51173 -0.21218,0.31203 -0.586616,0.773834 -0.08737,0.112331 -0.586617,0.773835 -0.499248,0.649022 -0.786316,0.986014 -0.137293,0.162256 -0.474285,0.486767 -0.324511,0.31203 -0.474286,0.51173 -0.124812,0.162255 -0.436842,0.411879 -0.287068,0.249624 -0.811278,0.736391 -0.52421,0.474286 -0.961053,0.861203 -0.42436,0.374436 -0.83624,0.673985 -0.187218,0.187218 -0.249624,0.224662 -0.04993,0.02496 -0.262105,0.149774 -0.1997,0.124812 -0.287068,0.162256 -0.07489,0.03744 -0.262105,0.09985 -0.174737,0.07489 -0.274587,0.06241 -0.11233,-0.01248 -0.249624,-0.07489 -0.137293,-0.04992 -0.249624,-0.187218 -0.224661,-0.262105 -0.52421,-0.911128 -0.299549,-0.661503 -0.399399,-0.83624 z m 0.31203,-1.073384 q 0.02496,0.02496 0.124812,-0.07489 l 0.02496,0.04993 q 0.07489,-0.07489 0.07489,-0.149774 0,-0.01248 -0.02496,-0.02496 -0.02496,-0.01248 -0.02496,-0.02496 -0.04993,0.02496 -0.112331,0.112331 -0.07489,0.07489 -0.06241,0.11233 z m 0.349474,-0.374436 h 0.02496 q 0.01248,-0.01248 0.04992,-0.04992 0.02496,-0.04992 0.03744,-0.06241 h -0.02496 q -0.01248,0.01248 -0.03744,0.06241 -0.03744,0.03744 -0.04993,0.04992 z m 0.08737,-0.561654 0.04992,-0.08737 q -0.01248,0.01248 -0.02496,0.04992 -0.01248,0.02496 -0.02496,0.03744 z m 0.04992,-0.08737 q 0.02496,-0.04993 0.09985,-0.124812 v -0.02496 q -0.01248,0.02496 -0.04992,0.07489 -0.03744,0.04992 -0.04993,0.07489 z m 0,0.41188 q 0,0.01248 0.02496,0.03744 0.02496,0.02496 0.02496,0.03744 0.09985,-0.174737 0.224662,-0.324511 0.124812,-0.187219 0.424361,-0.524211 0.287067,-0.336992 0.349473,-0.424361 0.124812,-0.08737 0.237143,-0.199699 0.124812,-0.112331 0.274587,-0.274586 0.149774,-0.162256 0.224661,-0.237143 l 0.174737,-0.187218 q -0.07489,0.07489 -0.274586,0.21218 -0.187218,0.124812 -0.262106,0.199699 -0.149774,0.149775 -0.93609,1.073384 l -0.237143,0.31203 q -0.03744,0.04993 -0.124812,0.149774 -0.08737,0.09985 -0.124812,0.149775 z m 0.349474,-0.636542 0.02496,-0.02496 h -0.02496 z m 0.237143,-0.274586 q 0.04993,0 0.08737,-0.02496 0.03744,-0.02496 0.06241,-0.03744 0.01248,-0.01248 0.04993,-0.07489 0.03744,-0.06241 0.04993,-0.07489 -0.174737,0.03744 -0.249624,0.212181 z m 0.02496,2.90812 q -0.01248,0.03744 0.07489,-0.01248 0.04993,-0.03744 0.04993,-0.03744 1.010978,-0.511729 2.246616,-1.56015 0.524211,-0.436842 1.285564,-1.298045 0.41188,-0.474286 1.023459,-1.260602 l 0.224661,-0.274586 0.02496,-0.02496 q 0.02496,-0.02496 0.09985,-0.124812 0.08737,-0.112331 0.124812,-0.162256 0.03744,-0.04993 0.08737,-0.137293 0.06241,-0.08737 0.08737,-0.174737 0.02496,-0.08737 0.03744,-0.174737 0,-0.09985 -0.08737,-0.237143 -0.08737,-0.137293 -0.174736,-0.08737 l -0.224662,0.149774 q -0.187218,0.124812 -0.237143,0.174737 -0.03744,0.04992 -0.112331,0.124812 -0.07489,0.06241 -0.11233,0.112331 -0.02496,0.02496 -0.07489,0.06241 -0.03744,0.03744 -0.07489,0.06241 -0.02496,0.02496 -0.04993,0.02496 -0.03744,-0.04992 -0.09985,0.01248 -0.04993,0.06241 -0.112331,0.187218 -0.02496,-0.02496 -0.06241,0.04992 -0.03744,0.06241 -0.07489,0.137294 -0.03744,0.06241 -0.06241,0.02496 -0.03744,-0.01248 -0.08737,0.03744 -0.04992,0.04992 -0.112331,0.162255 -0.02496,0.02496 -0.11233,0.07489 -0.08737,0.04992 -0.124812,0.124813 -0.112331,0.07489 -0.224662,0.187218 -0.199699,0.199699 -0.237143,0.224661 -0.124812,0.187218 -0.461804,0.41188 -0.1997,0.137293 -0.399399,0.411879 l -0.386917,0.374436 q -0.137293,0.137294 -0.386917,0.436843 -0.31203,0.349473 -0.661504,0.923608 -0.03744,0.06241 -0.21218,0.31203 -0.162256,0.237143 -0.262106,0.424361 -0.09985,0.187218 -0.137293,0.336993 z M 43.63498,21.83944 h 0.02496 q 0.01248,-0.01248 0.03744,-0.03744 0.03744,-0.02496 0.04993,-0.03744 h -0.03744 z m 0.21218,-0.149774 q 0.09985,-0.06241 0.174737,-0.21218 l -0.02496,-0.02496 z m 0.224662,-0.262105 q 0.212181,-0.212181 0.237143,-0.249624 l 0.02496,-0.02496 q -0.174736,0.137294 -0.262105,0.274587 z"
           style="font-family:Overglow;-inkscape-font-specification:Overglow"
           id="path849" />
      </g>
      <g
         aria-label="I"
         transform="matrix(0.98134958,0.45324013,-0.81339336,0.64333598,0,0)"
         id="g856"
         style="font-size:28.1359px;line-height:1.25;font-family:'Noto Sans Display';-inkscape-font-specification:'Noto Sans Display';fill:#dd38b7;stroke-width:0.264582">
        <path
           d="m 50.240926,-3.4813083 q 0.315979,0.3159793 0.192335,0.7830792 -0.08243,0.2885029 -0.08243,0.6594352 0,0.4533617 -0.453362,0.8105557 -0.23355,0.178597 -0.439624,0.39840876 -0.192335,0.20607349 -0.439623,0.52205284 -0.247288,0.30224112 -0.357194,0.42588521 -0.04122,0.0549529 -0.164859,0.26102642 -0.123644,0.20607349 -0.23355,0.30224112 -0.08243,0.0686912 -0.274765,0.31597935 -0.04121,0.0549529 -0.178597,0.178597 -0.123644,0.1236441 -0.164858,0.2060735 -0.123644,0.2198117 -0.288503,0.4258852 -0.164859,0.1923353 -0.439624,0.4945764 -0.261026,0.3022411 -0.343455,0.3846705 -0.4671,0.5495293 -0.865509,1.0853204 -0.412147,0.590744 -0.728126,0.9067234 -0.398409,0.3984087 -0.824294,0.9891527 -0.04121,0.054953 -0.480839,0.6044822 -0.425885,0.5495294 -0.645697,0.8517705 -0.700649,0.947938 -2.63774,3.7230607 l -1.772232,2.527835 q -0.480838,0.714388 -0.590744,1.154012 0,0.05495 -0.02748,0.08243 l -0.934199,1.428776 q -0.01374,0.02748 -0.137383,0.151121 l -0.398409,-0.09617 q -1.057843,-0.563267 -1.401299,-1.648588 0.755603,-1.263917 0.810555,-1.332608 0.302242,-0.425886 0.508315,-0.535791 0.23355,-0.137383 0.315979,-0.439624 l 0.645697,-0.824294 q 0.06869,-0.08243 0.274765,-0.329717 0.219812,-0.261027 0.315979,-0.398409 0.05495,-0.09617 0.178597,-0.247288 0.137383,-0.151121 0.219812,-0.288503 0.08243,-0.1511207 0.109906,-0.3022413 0.38467,-0.2747646 0.563267,-0.6182205 0.151121,-0.3022411 0.439624,-0.6869116 l 1.016629,-1.3463468 q 1.689803,-2.2942849 2.225594,-2.95372 0.06869,-0.082429 1.263917,-1.6623262 V 2.2887494 q 0.164859,-0.23355 0.192336,-0.2610264 0.357194,-0.2198118 0.508314,-0.5220529 0.06869,-0.1099059 0.23355,-0.2885029 0.178597,-0.178597 0.219812,-0.2198117 0.645697,-0.7143881 1.373823,-1.77223201 0.05495,-0.0824294 0.164859,-0.21981173 0.109906,-0.13738236 0.123644,-0.15112056 l 1.346347,-1.8546614 q 0.04121,-0.068691 0.09617,-0.2060735 0.05495,-0.1373823 0.06869,-0.1648588 0.15112,-0.2885029 0.425885,-0.3297176 0.577006,-0.1099058 0.879247,-0.027476 l 0.70065,0.2472882 z"
           style="font-family:Overglow;-inkscape-font-specification:Overglow"
           id="path854" />
      </g>
    </g>
  </g>
</svg>
