<?xml version="1.0" encoding="UTF-8" standalone="no"?>
<!-- Created with Inkscape (http://www.inkscape.org/) -->

<svg
   width="600"
   height="600"
   viewBox="0 0 158.75001 158.75001"
   version="1.1"
   id="svg24667"
   inkscape:version="1.1 (c68e22c387, 2021-05-23)"
   sodipodi:docname="o2.svg"
   xmlns:inkscape="http://www.inkscape.org/namespaces/inkscape"
   xmlns:sodipodi="http://sodipodi.sourceforge.net/DTD/sodipodi-0.dtd"
   xmlns="http://www.w3.org/2000/svg"
   xmlns:svg="http://www.w3.org/2000/svg">
  <sodipodi:namedview
     id="namedview24669"
     pagecolor="#505050"
     bordercolor="#eeeeee"
     borderopacity="1"
     inkscape:pageshadow="0"
     inkscape:pageopacity="0"
     inkscape:pagecheckerboard="0"
     inkscape:document-units="mm"
     showgrid="false"
     fit-margin-top="0"
     fit-margin-left="0"
     fit-margin-right="0"
     fit-margin-bottom="0"
     units="px"
     inkscape:zoom="0.73406285"
     inkscape:cx="213.197"
     inkscape:cy="140.9961"
     inkscape:window-width="1920"
     inkscape:window-height="1009"
     inkscape:window-x="1912"
     inkscape:window-y="-8"
     inkscape:window-maximized="1"
     inkscape:current-layer="layer1" />
  <defs
     id="defs24664" />
  <g
     inkscape:label="Calque 1"
     inkscape:groupmode="layer"
     id="layer1"
     transform="translate(-48.900991,-24.699671)">
    <path
       id="path15003"
       style="fill:#000000;fill-opacity:1;stroke-width:0.671957"
       d="m 135.4673,47.968063 c -6.4151,-0.44932 -12.7818,0.95483 -18.4565,3.97071 -19.965199,9.77066 -34.683999,30.66923 -35.038799,53.173327 -0.3556,7.2217 -0.1427,14.73637 3.1692,21.33323 4.9775,12.43073 13.9995,23.57755 26.430699,29.09532 9.6461,4.71659 21.334,6.72636 31.4166,2.12053 15.2846,-6.51687 24.3948,-21.96009 28.8126,-37.33993 3.1781,-12.02105 3.7071,-24.778517 1.7871,-37.046077 -1.9252,-8.42672 -4.4654,-17.22967 -10.9165,-23.38832 -5.9539,-6.49438 -14.1148,-11.80341 -23.2012,-11.83468 -1.3334,-0.0635 -2.6684,-0.0832 -4.0032,-0.0841 z m 3.4355,19.85303 c 6.6403,-0.2723 13.3515,1.75716 18.4245,6.18379 4.2328,3.33912 8.3031,7.87289 8.3378,13.59276 2.0915,17.373837 -5.1143,36.307787 -19.6975,46.428657 -4.5281,3.09115 -9.8425,5.06103 -15.3894,4.72535 -7.4257,0.70583 -14.0533,-0.86464 -20.1506,-5.00907 -4.8059,-2.86454 -9.6226,-6.5044 -13.681399,-10.31816 -2.493,-3.5247 -6.636,-9.91888 -6.1876,-17.21876 0.5303,-8.633177 9.499799,-20.551157 15.749499,-25.961247 6.628,-5.73751 13.54,-9.424 22.0658,-11.60866 3.4697,-0.63053 7.0111,-0.73819 10.5289,-0.81466 z"
       sodipodi:nodetypes="ssscsssscssssssccscssss" />
  </g>
</svg>
