<?xml version="1.0" encoding="UTF-8" standalone="no"?>
<!-- Created with Inkscape (http://www.inkscape.org/) -->

<svg
   width="600"
   height="600"
   viewBox="0 0 158.75001 158.75001"
   version="1.1"
   id="svg24667"
   inkscape:version="1.1 (c68e22c387, 2021-05-23)"
   sodipodi:docname="o3.svg"
   xmlns:inkscape="http://www.inkscape.org/namespaces/inkscape"
   xmlns:sodipodi="http://sodipodi.sourceforge.net/DTD/sodipodi-0.dtd"
   xmlns="http://www.w3.org/2000/svg"
   xmlns:svg="http://www.w3.org/2000/svg">
  <sodipodi:namedview
     id="namedview24669"
     pagecolor="#505050"
     bordercolor="#eeeeee"
     borderopacity="1"
     inkscape:pageshadow="0"
     inkscape:pageopacity="0"
     inkscape:pagecheckerboard="0"
     inkscape:document-units="mm"
     showgrid="false"
     fit-margin-top="0"
     fit-margin-left="0"
     fit-margin-right="0"
     fit-margin-bottom="0"
     units="px"
     inkscape:zoom="0.73406285"
     inkscape:cx="199.57419"
     inkscape:cy="66.070637"
     inkscape:window-width="1920"
     inkscape:window-height="1009"
     inkscape:window-x="1912"
     inkscape:window-y="-8"
     inkscape:window-maximized="1"
     inkscape:current-layer="layer1" />
  <defs
     id="defs24664" />
  <g
     inkscape:label="Calque 1"
     inkscape:groupmode="layer"
     id="layer1"
     transform="translate(-52.771629,-44.691514)">
    <path
       id="path14753"
       style="fill:#000000;stroke-width:0.671957"
       d="m 141.97291,73.41279 c -13.8519,0.31735 -27.1486,6.83258 -37.1495,16.21446 -12.3721,11.53742 -17.7295,29.59034 -14.2708,46.07105 1.8672,8.66828 4.2863,17.94113 11.2782,23.99335 7.0744,6.25155 14.8132,12.31882 24.3151,14.16738 17.149,3.88351 36.1153,-5.72222 43.4564,-21.64167 6.2463,-11.59941 5.7498,-25.2942 4.0808,-37.96248 -1.8167,-10.52138 -6.3303,-20.32697 -10.7274,-29.97627 -1.6001,-4.1275 -5.2217,-6.76893 -9.2176,-8.27275 -3.6375,-1.82864 -7.7118,-2.60135 -11.7652,-2.59307 z m -1.0443,17.46301 c 5.1568,-0.42557 10.7147,1.25911 13.5839,5.87731 3.201,4.36313 6.1131,8.88645 8.21,13.91899 3.2937,6.84091 5.8411,14.94744 3.3576,22.43866 -5.9339,14.03474 -21.4902,23.84824 -36.8194,21.64514 -10.4046,-0.99949 -19.9315,-6.8664 -26.5845,-14.75935 -2.4211,-3.94947 -5.0756,-8.14928 -5.4501,-12.87989 0.1752,-11.84705 9.1237,-21.30433 18.5107,-27.41312 7.5277,-4.79431 16.1392,-8.62326 25.1918,-8.82774 z"
       sodipodi:nodetypes="sssccssssccssssccscssccsss" />
  </g>
</svg>
