<?xml version="1.0" encoding="UTF-8" standalone="no"?>
<!-- Created with Inkscape (http://www.inkscape.org/) -->

<svg
   width="2000"
   height="600"
   viewBox="0 0 529.16669 158.75001"
   version="1.1"
   id="svg24667"
   inkscape:version="1.1 (c68e22c387, 2021-05-23)"
   sodipodi:docname="r0.svg"
   xmlns:inkscape="http://www.inkscape.org/namespaces/inkscape"
   xmlns:sodipodi="http://sodipodi.sourceforge.net/DTD/sodipodi-0.dtd"
   xmlns="http://www.w3.org/2000/svg"
   xmlns:svg="http://www.w3.org/2000/svg">
  <sodipodi:namedview
     id="namedview24669"
     pagecolor="#505050"
     bordercolor="#eeeeee"
     borderopacity="1"
     inkscape:pageshadow="0"
     inkscape:pageopacity="0"
     inkscape:pagecheckerboard="0"
     inkscape:document-units="mm"
     showgrid="false"
     fit-margin-top="0"
     fit-margin-left="0"
     fit-margin-right="0"
     fit-margin-bottom="0"
     units="px"
     inkscape:zoom="0.5135"
     inkscape:cx="1000"
     inkscape:cy="688.41285"
     inkscape:window-width="1920"
     inkscape:window-height="1009"
     inkscape:window-x="1912"
     inkscape:window-y="-8"
     inkscape:window-maximized="1"
     inkscape:current-layer="layer1" />
  <defs
     id="defs24664" />
  <g
     inkscape:label="Calque 1"
     inkscape:groupmode="layer"
     id="layer1"
     transform="translate(100.57005,132.51182)">
    <path
       id="path3788"
       style="fill:#000000;stroke-width:0.563883"
       d="m -87.469209,-40.891765 c 20.810949,-10.375882 43.190725,-9.486185 66.891585,-12.397503 44.113912,-5.418788 88.322478,-10.20178 132.666354,-11.57203 65.48709,-0.878974 131.07387,-1.425275 196.44939,2.302734 32.72914,3.52138 65.73437,4.73678 98.23259,10.219811 12.39835,1.311857 10.3648,18.188945 -2.84292,12.140311 -92.64663,-9.138317 -184.88403,-11.604988 -277.91586,-10.59554 -50.049462,1.343061 -99.886742,7.007781 -149.525091,13.809445 -11.114366,1.239787 -23.251245,2.860745 -34.952688,4.325615 -11.541664,3.308026 -25.381878,8.754311 -29.00336,-8.232843 z"
       sodipodi:nodetypes="sssccssccs" />
  </g>
</svg>
