<?xml version="1.0" encoding="UTF-8" standalone="no"?>
<!-- Created with Inkscape (http://www.inkscape.org/) -->

<svg
   width="2000"
   height="100.00001"
   viewBox="0 0 529.16668 26.458335"
   version="1.1"
   id="svg24667"
   inkscape:version="1.1 (c68e22c387, 2021-05-23)"
   sodipodi:docname="v2.svg"
   xmlns:inkscape="http://www.inkscape.org/namespaces/inkscape"
   xmlns:sodipodi="http://sodipodi.sourceforge.net/DTD/sodipodi-0.dtd"
   xmlns="http://www.w3.org/2000/svg"
   xmlns:svg="http://www.w3.org/2000/svg">
  <sodipodi:namedview
     id="namedview24669"
     pagecolor="#505050"
     bordercolor="#eeeeee"
     borderopacity="1"
     inkscape:pageshadow="0"
     inkscape:pageopacity="0"
     inkscape:pagecheckerboard="0"
     inkscape:document-units="mm"
     showgrid="false"
     fit-margin-top="0"
     fit-margin-left="0"
     fit-margin-right="0"
     fit-margin-bottom="0"
     units="px"
     inkscape:zoom="0.62410451"
     inkscape:cx="822.77887"
     inkscape:cy="48.87002"
     inkscape:window-width="1920"
     inkscape:window-height="1009"
     inkscape:window-x="1912"
     inkscape:window-y="-8"
     inkscape:window-maximized="1"
     inkscape:current-layer="layer1" />
  <defs
     id="defs24664" />
  <g
     inkscape:label="Calque 1"
     inkscape:groupmode="layer"
     id="layer1"
     transform="translate(107.57816,-95.812539)">
    <path
       id="path12757"
       style="fill:#000000;stroke-width:0.751107"
       d="m 34.138855,100.78543 c -42.727151,0.95233 -85.611323,-0.0396 -128.186124,3.259 -18.910301,-1.12502 -17.662001,24.78114 1.6326,16.64067 39.209901,-1.25425 78.506473,-0.62381 117.666574,-0.45021 55.316202,-1.67023 110.685875,0.0899 166.023345,-0.10688 62.85784,0.61361 125.36699,-0.006 188.58191,-1.92319 15.52288,-0.47067 48.71175,5.18047 40.42253,-17.28127 -11.01511,-10.408775 -25.01329,-1.722261 -54.6921,-1.567574 -86.29804,0.449772 -172.55366,1.237764 -258.83006,1.662124 -24.206993,-0.0113 -48.413504,0.0882 -72.618675,-0.23267 z"
       sodipodi:nodetypes="csscsscscc" />
  </g>
</svg>
