<?xml version="1.0" encoding="UTF-8" standalone="no"?>
<!-- Created with Inkscape (http://www.inkscape.org/) -->

<svg
   width="600"
   height="600"
   viewBox="0 0 158.75 158.75001"
   version="1.1"
   id="svg24667"
   inkscape:version="1.1 (c68e22c387, 2021-05-23)"
   sodipodi:docname="x1.svg"
   xmlns:inkscape="http://www.inkscape.org/namespaces/inkscape"
   xmlns:sodipodi="http://sodipodi.sourceforge.net/DTD/sodipodi-0.dtd"
   xmlns="http://www.w3.org/2000/svg"
   xmlns:svg="http://www.w3.org/2000/svg">
  <sodipodi:namedview
     id="namedview24669"
     pagecolor="#505050"
     bordercolor="#eeeeee"
     borderopacity="1"
     inkscape:pageshadow="0"
     inkscape:pageopacity="0"
     inkscape:pagecheckerboard="0"
     inkscape:document-units="mm"
     showgrid="false"
     fit-margin-top="0"
     fit-margin-left="0"
     fit-margin-right="0"
     fit-margin-bottom="0"
     units="px"
     inkscape:zoom="0.73406285"
     inkscape:cx="179.13997"
     inkscape:cy="241.80491"
     inkscape:window-width="1920"
     inkscape:window-height="1009"
     inkscape:window-x="1912"
     inkscape:window-y="-8"
     inkscape:window-maximized="1"
     inkscape:current-layer="layer1" />
  <defs
     id="defs24664" />
  <g
     inkscape:label="Calque 1"
     inkscape:groupmode="layer"
     id="layer1"
     transform="translate(-57.945438,-55.72807)">
    <path
       style="fill:#000000;stroke-width:0.671958"
       d="m 93.085315,186.57836 c -2.57201,-4.97371 -1.74399,-10.54527 2.5198,-16.9552 3.51617,-5.286 12.959815,-16.91196 20.458545,-25.18626 3.60322,-3.97587 7.64531,-8.45948 8.98242,-9.96356 l 2.43112,-2.73469 -5.33551,-7.38922 c -2.93454,-4.06407 -8.65794,-11.82998 -12.71866,-17.25757 -4.06073,-5.42758 -7.96982,-11.082615 -8.68687,-12.566735 -2.299675,-4.75979 -1.453735,-12.84269 1.34408,-12.84269 2.71596,0 9.42366,7.47274 26.23768,29.230155 4.56971,5.91323 8.41075,10.88149 8.53564,11.04059 0.1249,0.15911 6.04373,-5.45103 13.15297,-12.46696 17.51336,-17.283495 28.50725,-27.170095 29.70292,-26.711275 2.78833,1.06998 4.47247,13.90969 2.33861,17.829235 -0.53503,0.98275 -4.60135,5.04772 -9.03627,9.03325 -12.52563,11.25642 -25.87037,23.8946 -25.87037,24.50062 0,1.36989 15.94897,16.94145 23.51852,22.96196 4.61971,3.67435 8.92863,7.63179 9.57539,8.79432 1.63092,2.93153 1.6303,11.97226 -0.001,15.23784 -0.66915,1.33948 -1.76333,2.4361 -2.5419,2.54758 -3.85262,0.55169 -22.00392,-16.06233 -34.58242,-31.65383 l -6.38359,-7.91269 -9.87529,10.09649 c -8.66976,8.86397 -14.30837,15.10083 -27.529385,30.45022 -1.8304,2.12507 -3.75598,3.86376 -4.27906,3.86376 -0.52308,0 -1.40375,-0.8754 -1.95703,-1.94534 z"
       id="path1119"
       sodipodi:nodetypes="cssscsssssssssssssssscssscc" />
  </g>
</svg>
