<?xml version="1.0" encoding="UTF-8" standalone="no"?>
<!-- Created with Inkscape (http://www.inkscape.org/) -->

<svg
   width="600"
   height="600"
   viewBox="0 0 158.75 158.75"
   version="1.1"
   id="svg24667"
   inkscape:version="1.1 (c68e22c387, 2021-05-23)"
   sodipodi:docname="x3.svg"
   xmlns:inkscape="http://www.inkscape.org/namespaces/inkscape"
   xmlns:sodipodi="http://sodipodi.sourceforge.net/DTD/sodipodi-0.dtd"
   xmlns="http://www.w3.org/2000/svg"
   xmlns:svg="http://www.w3.org/2000/svg">
  <sodipodi:namedview
     id="namedview24669"
     pagecolor="#505050"
     bordercolor="#eeeeee"
     borderopacity="1"
     inkscape:pageshadow="0"
     inkscape:pageopacity="0"
     inkscape:pagecheckerboard="0"
     inkscape:document-units="mm"
     showgrid="false"
     fit-margin-top="0"
     fit-margin-left="0"
     fit-margin-right="0"
     fit-margin-bottom="0"
     units="px"
     inkscape:zoom="0.73406285"
     inkscape:cx="294.93387"
     inkscape:cy="55.172387"
     inkscape:window-width="1920"
     inkscape:window-height="1009"
     inkscape:window-x="1912"
     inkscape:window-y="-8"
     inkscape:window-maximized="1"
     inkscape:current-layer="layer1" />
  <defs
     id="defs24664" />
  <g
     inkscape:label="Calque 1"
     inkscape:groupmode="layer"
     id="layer1"
     transform="translate(-27.30197,-47.22138)">
    <path
       style="fill:#000000;stroke-width:0.638045"
       d="m 53.656883,185.53784 c -3.53903,-2.36002 -2.648648,-12.11343 1.969697,-21.57583 3.900124,-7.99065 9.714727,-15.42031 20.439242,-26.11622 l 10.245461,-10.21815 -4.10481,-3.49974 C 74.740367,117.76288 60.066621,102.84299 56.410926,97.899662 51.032555,90.627063 49.573672,87.553727 49.573672,83.495971 c 0,-3.409414 1.464158,-7.478723 2.551696,-7.091832 0.309531,0.110101 5.532523,4.959418 11.606669,10.776254 13.685869,13.106127 17.308103,16.342877 27.15693,24.268067 l 7.818658,6.2915 10.046085,-7.7793 c 5.78212,-4.47733 14.65025,-12.275532 20.89288,-18.37227 5.96566,-5.826109 12.51929,-12.152749 14.56384,-14.059207 4.88755,-4.557704 12.38959,-10.176302 13.58744,-10.176302 1.70298,0 3.56731,5.488229 3.66284,10.78238 0.11568,6.415706 -0.7632,8.289532 -5.42062,11.556539 -2.09153,1.467112 -9.78349,8.453823 -17.09311,15.52585 -7.3096,7.07228 -16.03981,15.01191 -19.40067,17.64384 -3.3608,2.63196 -6.02985,5.06732 -5.93118,5.41181 0.0985,0.34449 5.08854,4.22046 11.08839,8.61346 6.00029,4.39295 14.73504,10.89377 19.41078,14.44659 4.67576,3.55292 10.36769,7.58526 12.64866,8.96085 5.30292,3.19787 7.01873,6.20789 7.01731,12.3095 -6.3e-4,2.69304 -0.39633,4.96306 -1.11652,6.40472 -0.96573,1.93316 -1.46376,2.25868 -3.70827,2.42345 -3.04318,0.2234 -5.76492,-1.43984 -17.50519,-10.69753 -6.69929,-5.28254 -39.11387,-30.15389 -41.13603,-31.56306 -0.991477,-0.69111 -2.227276,0.17219 -13.096731,9.14986 -8.266997,6.82796 -19.302142,17.73546 -23.607173,23.33366 -1.579126,2.0537 -4.036182,6.03721 -5.46014,8.85244 -2.62478,5.18939 -3.233385,5.87083 -4.493333,5.0306 z"
       id="path1321"
       sodipodi:nodetypes="ssscsssssscsssssssssssssssssssss" />
  </g>
</svg>
